<svg width="20" height="26" viewBox="0 0 20 26" fill="none" xmlns="http://www.w3.org/2000/svg">
<path fill-rule="evenodd" clip-rule="evenodd" d="M5 6.5V5.2C5 3.82087 5.52678 2.49823 6.46447 1.52304C7.40215 0.547856 8.67392 0 10 0C11.3261 0 12.5979 0.547856 13.5355 1.52304C14.4732 2.49823 15 3.82087 15 5.2V6.5H18.75C19.44 6.5 20 7.0837 20 7.8091V23.4104C20 24.8404 18.8813 26 17.5075 26H2.4925C1.83188 26 1.19828 25.7272 0.73092 25.2417C0.263557 24.7561 0.000662607 24.0974 0 23.4104V7.8104C0 7.085 0.55625 6.5 1.25 6.5H5ZM6.5 6.5H13.5V5.2C13.5 4.23461 13.1313 3.30876 12.4749 2.62613C11.8185 1.9435 10.9283 1.56 10 1.56C9.07174 1.56 8.1815 1.9435 7.52513 2.62613C6.86875 3.30876 6.5 4.23461 6.5 5.2V6.5ZM5 8.06H1.5V23.4104C1.5 23.9772 1.945 24.44 2.4925 24.44H17.5075C17.7703 24.44 18.0224 24.3316 18.2084 24.1386C18.3945 23.9456 18.4993 23.6837 18.5 23.4104V8.06H15V11.7H13.5V8.06H6.5V11.7H5V8.06Z" fill="#000102"/>
</svg>
