<svg width="49" height="48" viewBox="0 0 49 48" fill="none" xmlns="http://www.w3.org/2000/svg">
<rect x="0.817383" y="0.5" width="47" height="47" rx="23.5" stroke="#ED751C"/>
<path d="M19.3192 24C19.3192 21.2387 21.557 18.9996 24.3184 18.9996C27.0797 18.9996 29.3188 21.2387 29.3188 24C29.3188 26.7613 27.0797 29.0004 24.3184 29.0004C21.557 29.0004 19.3192 26.7613 19.3192 24ZM16.616 24C16.616 28.254 20.0644 31.7023 24.3184 31.7023C28.5724 31.7023 32.0207 28.254 32.0207 24C32.0207 19.746 28.5724 16.2977 24.3184 16.2977C20.0644 16.2977 16.616 19.746 16.616 24ZM30.5256 15.9923C30.5255 16.3483 30.6309 16.6963 30.8286 16.9924C31.0262 17.2885 31.3072 17.5193 31.6361 17.6557C31.965 17.7921 32.3269 17.8279 32.6761 17.7586C33.0252 17.6892 33.346 17.5179 33.5979 17.2663C33.8497 17.0147 34.0213 16.694 34.0909 16.3449C34.1605 15.9957 34.125 15.6338 33.9889 15.3048C33.8527 14.9759 33.6222 14.6947 33.3262 14.4968C33.0303 14.2989 32.6823 14.1931 32.3263 14.193H32.3256C31.8484 14.1932 31.3908 14.3828 31.0533 14.7202C30.7158 15.0576 30.526 15.5151 30.5256 15.9923ZM18.2584 36.2096C16.7959 36.143 16.001 35.8994 15.4728 35.6936C14.7725 35.421 14.2728 35.0963 13.7474 34.5716C13.2221 34.047 12.8969 33.5478 12.6254 32.8475C12.4195 32.3195 12.1759 31.5244 12.1094 30.0619C12.0367 28.4808 12.0222 28.0058 12.0222 24.0001C12.0222 19.9944 12.0379 19.5208 12.1094 17.9383C12.176 16.4759 12.4214 15.6823 12.6254 15.1528C12.8981 14.4524 13.2228 13.9528 13.7474 13.4274C14.2721 12.902 14.7713 12.5768 15.4728 12.3054C16.0008 12.0995 16.7959 11.8559 18.2584 11.7894C19.8395 11.7167 20.3144 11.7022 24.3184 11.7022C28.3223 11.7022 28.7977 11.7179 30.3802 11.7894C31.8426 11.856 32.6362 12.1014 33.1657 12.3054C33.866 12.5768 34.3657 12.9028 34.8911 13.4274C35.4164 13.952 35.7404 14.4524 36.0131 15.1528C36.219 15.6808 36.4626 16.4759 36.5291 17.9383C36.6018 19.5208 36.6163 19.9944 36.6163 24.0001C36.6163 28.0058 36.6018 28.4795 36.5291 30.0619C36.4625 31.5244 36.2177 32.3192 36.0131 32.8475C35.7404 33.5478 35.4157 34.0475 34.8911 34.5716C34.3664 35.0958 33.866 35.421 33.1657 35.6936C32.6377 35.8996 31.8426 36.1432 30.3802 36.2096C28.799 36.2824 28.3241 36.2969 24.3184 36.2969C20.3126 36.2969 19.839 36.2824 18.2584 36.2096ZM18.1342 9.09084C16.5373 9.16356 15.4462 9.41676 14.4932 9.78756C13.5064 10.1705 12.6709 10.6842 11.8361 11.5177C11.0012 12.3512 10.4888 13.188 10.1059 14.1749C9.73512 15.1284 9.48192 16.219 9.4092 17.8158C9.33528 19.4152 9.31836 19.9265 9.31836 24C9.31836 28.0735 9.33528 28.5848 9.4092 30.1842C9.48192 31.7812 9.73512 32.8716 10.1059 33.8251C10.4888 34.8114 11.0014 35.6491 11.8361 36.4823C12.6708 37.3154 13.5064 37.8284 14.4932 38.2124C15.448 38.5832 16.5373 38.8364 18.1342 38.9092C19.7344 38.9819 20.2448 39 24.3184 39C28.3919 39 28.9032 38.9831 30.5026 38.9092C32.0995 38.8364 33.19 38.5832 34.1435 38.2124C35.1298 37.8284 35.9658 37.3158 36.8006 36.4823C37.6355 35.6488 38.1468 34.8114 38.5308 33.8251C38.9016 32.8716 39.156 31.781 39.2275 30.1842C39.3002 28.5836 39.3172 28.0735 39.3172 24C39.3172 19.9265 39.3002 19.4152 39.2275 17.8158C39.1548 16.2188 38.9016 15.1278 38.5308 14.1749C38.1468 13.1886 37.6342 12.3526 36.8006 11.5177C35.9671 10.6829 35.1298 10.1705 34.1447 9.78756C33.19 9.41676 32.0994 9.16236 30.5038 9.09084C28.9044 9.01812 28.3931 9 24.3196 9C20.246 9 19.7344 9.01692 18.1342 9.09084Z" fill="#ED751C"/>
</svg>
