<svg width="25" height="5" viewBox="0 0 25 5" fill="none" xmlns="http://www.w3.org/2000/svg">
<path d="M23.2143 4.28578H14.2857H10.7143H1.78571C1.31211 4.28578 0.85791 4.09765 0.523024 3.76276C0.188138 3.42787 0 2.97367 0 2.50007C0 2.02647 0.188138 1.57227 0.523024 1.23738C0.85791 0.902493 1.31211 0.714356 1.78571 0.714356H10.7143L14.2857 0.714233L23.2143 0.714356C23.6879 0.714356 24.1421 0.902493 24.477 1.23738C24.8119 1.57227 25 2.02647 25 2.50007C25 2.97367 24.8119 3.42787 24.477 3.76276C24.1421 4.09765 23.6879 4.28578 23.2143 4.28578Z" fill="url(#paint0_linear_605_22)"/>
<defs>
<linearGradient id="paint0_linear_605_22" x1="12.5" y1="-10.0001" x2="12.5" y2="14.9999" gradientUnits="userSpaceOnUse">
<stop stop-color="#004C91"/>
<stop offset="1" stop-color="#0F3168"/>
</linearGradient>
</defs>
</svg>
