<svg width="49" height="48" viewBox="0 0 49 48" fill="none" xmlns="http://www.w3.org/2000/svg">
<rect x="0.817383" y="0.5" width="47" height="47" rx="23.5" stroke="#ED751C"/>
<path fill-rule="evenodd" clip-rule="evenodd" d="M29.6525 35.8843C31.33 36.6182 31.959 35.0805 31.959 35.0805L36.3975 12.7836C36.3625 11.2808 34.3355 12.1895 34.3355 12.1895L9.4874 21.94C9.4874 21.94 8.29917 22.3594 8.40401 23.0933C8.50886 23.8272 9.45246 24.1767 9.45246 24.1767L15.7082 26.2736C15.7082 26.2736 17.5954 32.4594 17.9798 33.6476C18.3293 34.8009 18.6438 34.8359 18.6438 34.8359C18.9933 34.9757 19.3078 34.731 19.3078 34.731L23.3618 31.0615L29.6525 35.8843ZM30.7361 16.7327C30.7361 16.7327 31.6098 16.2085 31.5749 16.7327C31.5749 16.7327 31.7147 16.8026 31.2604 17.2919C30.841 17.7113 20.9507 26.5881 19.6226 27.7764C19.5178 27.8462 19.4479 27.9511 19.4479 28.0909L19.0635 31.376C18.9936 31.7255 18.5392 31.7604 18.4344 31.4459L16.7918 26.0639C16.7219 25.8542 16.7918 25.6096 17.0015 25.4698L30.7361 16.7327Z" fill="#ED751C"/>
</svg>
