<svg width="34" height="34" viewBox="0 0 34 34" fill="none" xmlns="http://www.w3.org/2000/svg">
<path d="M2 17C2 18.9698 2.38799 20.9204 3.14181 22.7403C3.89563 24.5601 5.00052 26.2137 6.3934 27.6066C7.78628 28.9995 9.43986 30.1044 11.2597 30.8582C13.0796 31.612 15.0302 32 17 32C18.9698 32 20.9204 31.612 22.7403 30.8582C24.5601 30.1044 26.2137 28.9995 27.6066 27.6066C28.9995 26.2137 30.1044 24.5601 30.8582 22.7403C31.612 20.9204 32 18.9698 32 17C32 13.0218 30.4196 9.20644 27.6066 6.3934C24.7936 3.58035 20.9782 2 17 2C13.0218 2 9.20644 3.58035 6.3934 6.3934C3.58035 9.20644 2 13.0218 2 17Z" stroke="#24386B" stroke-width="3" stroke-linecap="round" stroke-linejoin="round"/>
<path d="M17 8.66663V17L22 22" stroke="#24386B" stroke-width="3" stroke-linecap="round" stroke-linejoin="round"/>
</svg>
