<svg width="49" height="48" viewBox="0 0 49 48" fill="none" xmlns="http://www.w3.org/2000/svg">
<rect x="0.817383" y="0.5" width="47" height="47" rx="23.5" stroke="#ED751C"/>
<path fill-rule="evenodd" clip-rule="evenodd" d="M39.5832 16.5346C39.8057 15.7929 39.5832 15.2478 38.5244 15.2478H35.0236C34.1334 15.2478 33.7233 15.7187 33.5008 16.238C33.5008 16.238 31.7203 20.5773 29.1983 23.396C28.3823 24.2119 28.0115 24.4712 27.5664 24.4712C27.3438 24.4712 27.0218 24.2119 27.0218 23.4702V16.5346C27.0218 15.6444 26.7634 15.2478 26.0215 15.2478H20.5202C19.9641 15.2478 19.6295 15.6609 19.6295 16.0525C19.6295 16.8964 20.8903 17.091 21.0203 19.4645V24.62C21.0203 25.7503 20.8163 25.9553 20.3712 25.9553C19.1844 25.9553 16.2977 21.5963 14.5853 16.6089C14.2498 15.6394 13.9132 15.2478 13.0185 15.2478H9.51766C8.51743 15.2478 8.31738 15.7187 8.31738 16.238C8.31738 17.1653 9.50441 21.7643 13.8437 27.8467C16.7368 32.0002 20.8123 34.2522 24.5212 34.2522C26.7467 34.2522 27.0218 33.7521 27.0218 32.8907V29.7512C27.0218 28.751 27.2326 28.5514 27.937 28.5514C28.4566 28.5514 29.3465 28.811 31.4238 30.8137C33.7973 33.187 34.1884 34.2522 35.5237 34.2522H39.0246C40.0248 34.2522 40.5249 33.7521 40.2363 32.7651C39.9208 31.7814 38.7875 30.3546 37.2836 28.6627C36.4677 27.6982 35.2437 26.6597 34.8731 26.1406C34.3537 25.4729 34.502 25.1764 34.8731 24.5832C34.8731 24.5832 39.1381 18.5748 39.5832 16.5349V16.5346Z" fill="#ED751C"/>
</svg>
