<?xml version="1.0" encoding="UTF-8"?>
<svg id="_Слой_1" data-name="Слой 1" xmlns="http://www.w3.org/2000/svg" version="1.1" viewBox="0 0 1920 1080">
  <defs>
    <style>
      .cls-1 {
        fill: #dfc5ae;
        stroke-width: 0px;
      }
    </style>
  </defs>
  <path class="cls-1" d="M857.33,590.56l-.65.21h36.5l-.65-.21c-6.1-1.99-7.21-2.35-7.44-6.54v-.64l.06-.2c-.06-1.05-.06-18.4-.08-28.67,0-9.8.02-58.75.08-59.69l-.06-.21v-.64c.23-4.19,1.33-4.55,7.44-6.54l.65-.21h-36.5l.65.21c6.31,2.06,7.33,2.76,7.47,7.9v87.28c-.12,4.76-.64,5.69-7.47,7.92v.02Z"/>
  <path class="cls-1" d="M968.42,578.57l.18.46c.62,1.61,1.27,3.28,1.27,5.07,0,.11-.03.26-.06.41-.03.2-.08.43-.08.64-.27,1.74-2.54,3.78-5.07,4.55h-.05l-.48,1.14h33.98v-1.27h-.64c-1.26,0-2.08-.79-2.66-2.56-.94-3.08-30.15-75.74-38.6-95.98-.56-1.26-2.56-3.5-3.53-3.5h-33.24l.26.2c.17.12,1.64,1.21,2.18,1.21,3.83,0,7.39,1.53,10.59,4.55l-26,87.94c-1.85,3.7-5.72,7.22-10.13,9.22l-.47.21h23.52l-3.68-1.53c-1.42-.65-2.62-1.58-3.53-2.75-.92-1.32-1.44-2.9-1.44-4.44,0-.65.14-1.3.26-1.96l14.39-48.63h23.76l19.26,47.05h.01ZM948.54,529.83h-22.69l9.65-32.64,13.04,32.64Z"/>
  <path class="cls-1" d="M1051.86,489.21c-7.25,3.52-13.49,10.53-18.55,20.83l-.39.79c-1.06,2.14-1.92,4-2.83,6.13v-21.43c0-5.29,1.08-6.01,7.72-8.1l.68-.21h-37.91l.92.29c6.19,1.94,7.48,2.34,7.48,6.7v89.49c0,4.2-1.27,4.63-7.36,6.66l-1.01.33h37.83l-.64-.21c-6.65-2.21-7.72-2.96-7.72-8.24v-58.37c1.3-4.91,3.07-9.25,5.27-12.94,2.13-3.81,5.18-8.46,9.74-10.68,1.89-.94,3.83-1.44,5.63-1.44,1.08,0,2.11.14,3.01.4,3.14.8,5.74,3.22,7.54,6.98,1.65,3.44,2.54,7.93,2.54,12.65v67.36c-.76,2-2.48,2.67-7.33,4.28l-.64.21h37.85l-.65-.21c-5.32-1.73-6.95-2.64-7.59-5.32v-62.21c1.32-4.7,2.95-8.63,5.01-12.01,3.06-5.45,6.28-8.94,9.87-10.68,1.73-.93,3.68-1.44,5.5-1.44,1.08,0,2.11.14,3.01.4,3.14.8,5.74,3.22,7.54,6.98,1.65,3.44,2.54,7.93,2.54,12.65v64.6c0,4.46-1.47,5.1-7.72,7.04l-.68.21h38.57l-.68-.21c-6.24-1.96-7.72-2.58-7.72-7.04v-69.5c0-.85-.24-1.76-.48-2.65-.06-.23-.12-.47-.18-.68-1-5.69-3.15-10.78-6.24-14.74-4.39-5.34-11.27-8.65-17.93-8.65-3,0-6.03.68-8.77,2-7.24,3.52-13.49,10.53-18.55,20.83l-.39.8c-.35.74-.7,1.45-1.07,2.2-.53,1.06-1.09,2.17-1.61,3.37,0-.15,0-.32.02-.47.03-.68.06-1.32-.03-2.02-.06-.53-.17-1.11-.27-1.67-.09-.55-.2-1.12-.26-1.65-1-5.69-3.15-10.78-6.24-14.74-4.45-5.42-11.21-8.65-18.05-8.65-3,0-6.03.68-8.77,2h-.01Z"/>
  <path class="cls-1" d="M768.56,580.1c6.01,6.99,19.33,11.8,33.89,12.27,1.83.05,3.35.06,4.74.06h1.51c.29,0,.58,0,.86-.01h.35c3.94-.08,7.36-.3,10.49-.73,10.54-1.47,18.7-5.13,24.25-10.86,4.86-5.04,7.44-11.45,7.44-18.57,0-12.33-15.64-21.24-29.46-29.09-.92-.52-1.83-1.05-2.73-1.56-.76-.44-1.53-.88-2.32-1.32-13.22-7.52-29.65-16.9-29.44-28.29,0-2.81,1.68-6.54,4.3-9.51,2.94-3.34,6.62-5.28,10.09-5.29h.12c6.47,0,12.42,2.61,17.23,7.55,4.47,4.6,7.5,10.77,8.51,17.4.48,3.12-.03,5.9-.58,8.84-.04.29-.11.58-.17.88l-.03.15.15-.03c9.28-1.44,15.73-5.37,19.75-12.01,1.27-2.11,1.62-3.35.5-5.66-.92-1.91-1.88-3.88-3.42-5.66-6.01-6.99-19.32-11.8-33.89-12.27-4.32-.11-8.57-.15-13.34.3-4.3.44-8.39,1.33-12.49,2.72-12.33,4.22-18.32,11.92-18.32,23.57,0,14.61,21.04,26.36,36.41,34.95,1.92,1.08,3.73,2.08,5.39,3.05,14.54,8.42,21.91,16.58,21.91,24.25s-8.69,15.56-17.55,16.34h-2.07c-.8,0-1.62-.03-2.44-.12h-.14c-.14-.03-.27-.05-.41-.06l-.2-.03c-.32-.04-.62-.09-.94-.14-.24-.05-.48-.09-.73-.14-.06,0-.12-.03-.18-.05l-.12-.03c-5.3-1.18-10.1-4.25-13.89-8.86-3.54-4.34-5.97-9.84-6.85-15.53-.48-3.12.03-5.91.58-8.86l.18-1.02-.15.03c-9.28,1.44-15.73,5.37-19.76,12.01-1.27,2.11-1.62,3.35-.5,5.66.92,1.91,1.88,3.88,3.42,5.66h.03Z"/>
  <path class="cls-1" d="M1311.25,539.14c0-9.19-2.38-18.28-6.89-26.27-9.44-16.61-27.2-26.92-46.36-26.92-9.09,0-18.11,2.38-26.09,6.9-16.58,9.45-26.88,27.2-26.88,46.29,0,9.13,2.42,18.22,7.01,26.26,4.74,8.33,11.6,15.23,19.84,19.93,8.01,4.58,17.14,6.99,26.38,6.99s18.11-2.38,26.21-6.9c16.51-9.4,26.76-27.15,26.76-46.29v.02ZM1293.59,562.58c0,9.63-3.59,16.78-10.39,20.69-2.94,1.65-6.12,2.5-9.47,2.5-6.39,0-13.46-3.17-20.46-9.18-6.75-5.79-13.27-14.05-18.82-23.86-7.57-13.41-11.75-26.56-11.75-37.01,0-9.63,3.59-16.78,10.39-20.69,2.94-1.65,6.12-2.5,9.46-2.5,6.45,0,13.54,3.18,20.52,9.19,6.71,5.79,13.21,14.08,18.78,23.98,7.57,13.41,11.75,26.51,11.75,36.87h-.02Z"/>
  <path class="cls-1" d="M1380.16,585.32c-.27,1.74-2.54,3.78-5.07,4.55h-.05l-.48,1.14h33.98v-1.27h-.64c-1.26,0-2.07-.79-2.66-2.56-.94-3.08-30.15-75.73-38.6-95.98-.56-1.26-2.56-3.5-3.53-3.5h-33.24l.26.2c.17.12,1.64,1.21,2.18,1.21,3.83,0,7.39,1.53,10.59,4.55l-26,87.95c-1.85,3.7-5.72,7.22-10.13,9.22l-.47.21h23.52l-3.68-1.53c-1.42-.65-2.62-1.58-3.53-2.75-.92-1.32-1.44-2.9-1.44-4.45,0-.65.14-1.3.26-1.96l14.39-48.63h23.76l19.26,47.05.18.46c.62,1.61,1.27,3.28,1.27,5.07,0,.11-.03.26-.06.41-.03.2-.08.43-.08.64h.01ZM1358.95,530.03h-22.69l9.65-32.64,13.04,32.64Z"/>
  <path class="cls-1" d="M1547.12,487.65l.65-.21h-36.5l.65.21c6.31,2.06,7.33,2.76,7.47,7.9v87.29c-.12,4.76-.64,5.69-7.47,7.92l-.65.21h36.5l-.65-.21c-6.1-1.99-7.21-2.35-7.44-6.54v-.64l.06-.2c-.06-1.05-.06-18.4-.08-28.67,0-9.8.01-58.75.08-59.69l-.06-.21v-.64c.23-4.19,1.33-4.55,7.44-6.54Z"/>
  <path class="cls-1" d="M1419.79,579.92c6.01,6.99,19.31,11.8,33.89,12.27,1.82.05,3.33.06,4.73.06h1.53c.27,0,.56,0,.83-.02h.38c3.94-.08,7.36-.3,10.5-.73,10.54-1.47,18.7-5.13,24.25-10.86,4.86-5.04,7.44-11.45,7.44-18.57,0-12.33-15.64-21.24-29.44-29.09-.92-.53-1.83-1.05-2.73-1.56-.76-.44-1.53-.88-2.32-1.32-13.22-7.52-29.67-16.9-29.46-28.29,0-2.81,1.68-6.54,4.3-9.51,2.95-3.34,6.62-5.28,10.09-5.29h.12c6.47,0,12.42,2.61,17.23,7.55,4.47,4.6,7.5,10.77,8.51,17.4.48,3.13-.03,5.9-.58,8.84-.04.29-.11.58-.17.88l-.03.15.15-.03c9.28-1.44,15.74-5.37,19.75-12.01,1.27-2.11,1.62-3.35.5-5.66-.92-1.91-1.88-3.87-3.42-5.66-6.01-6.99-19.32-11.8-33.89-12.27-4.32-.11-8.59-.15-13.34.3-4.3.44-8.39,1.33-12.49,2.72-12.33,4.22-18.32,11.92-18.32,23.57,0,14.61,21.04,26.36,36.41,34.95,1.92,1.08,3.73,2.08,5.39,3.05,14.54,8.42,21.91,16.58,21.91,24.25s-8.69,15.56-17.55,16.34h-2.07c-.8,0-1.64-.03-2.44-.12h-.14c-.14-.02-.29-.05-.42-.06l-.18-.03c-.32-.05-.62-.09-.94-.14-.24-.05-.48-.09-.73-.14-.06,0-.12-.03-.18-.04l-.11-.03c-5.3-1.18-10.1-4.25-13.89-8.86-3.54-4.34-5.97-9.84-6.84-15.53-.48-3.14.03-5.92.58-8.86l.18-1.02-.15.03c-9.28,1.44-15.74,5.37-19.76,12.01-1.27,2.11-1.62,3.35-.5,5.66.92,1.91,1.88,3.88,3.42,5.66h.01Z"/>
  <path class="cls-1" d="M1618.27,533.5c-.93-.53-1.84-1.05-2.73-1.56-.76-.44-1.53-.88-2.32-1.32-13.22-7.52-29.65-16.9-29.44-28.29,0-2.81,1.68-6.54,4.3-9.51,2.94-3.34,6.62-5.28,10.09-5.29h.12c6.47,0,12.42,2.61,17.23,7.55,4.47,4.6,7.5,10.77,8.51,17.4.49,3.12-.03,5.92-.58,8.86l-.17,1.02.14-.03c9.28-1.44,15.73-5.37,19.76-12.01,1.28-2.11,1.62-3.35.5-5.66-.92-1.91-1.88-3.87-3.42-5.66-6.02-6.99-19.33-11.8-33.89-12.27-4.32-.11-8.59-.15-13.34.3-4.3.44-8.39,1.33-12.49,2.72-12.33,4.22-18.32,11.92-18.32,23.57,0,14.61,21.04,26.36,36.41,34.95,1.92,1.08,3.73,2.08,5.39,3.05,14.54,8.42,21.92,16.58,21.92,24.25s-8.7,15.56-17.56,16.34h-2.19c-.77,0-1.56-.05-2.33-.12h-.14c-.14-.01-.29-.04-.42-.06l-.18-.03c-.32-.04-.62-.09-.94-.14-.24-.05-.48-.09-.73-.14-.06,0-.12-.03-.18-.05l-.12-.03c-5.3-1.18-10.1-4.25-13.89-8.86-3.54-4.34-5.97-9.84-6.85-15.53-.48-3.12.03-5.92.58-8.86.06-.29.11-.58.17-.88l.03-.15-.15.03c-9.28,1.44-15.73,5.37-19.76,12.01-1.27,2.11-1.62,3.35-.5,5.66.92,1.91,1.88,3.88,3.42,5.66,6.01,6.99,19.31,11.8,33.89,12.27,1.82.04,3.33.06,4.71.06h1.53c.27,0,.56,0,.83-.02h.38c3.94-.08,7.36-.3,10.5-.73,10.54-1.47,18.7-5.13,24.25-10.86,4.86-5.04,7.44-11.45,7.44-18.57,0-12.33-15.64-21.24-29.45-29.09v.02Z"/>
  <path class="cls-1" d="M779.49,621.34h-19.54v-4h43.72v4h-19.61v52.01h-4.57v-52.01Z"/>
  <path class="cls-1" d="M816.88,647.19v26.17h-4.57v-56h20.87c11.46,0,17.54,5.92,17.54,14.73,0,7.11-4.41,11.76-10.89,13.12,5.98,1.37,9.98,5.13,9.98,14.64v2.15c0,3.91-.33,9.21.74,11.36h-4.57c-1.08-2.4-.83-6.89-.83-11.68v-1.44c0-9.21-2.83-13.04-13.96-13.04h-14.3ZM816.88,643.18h14.05c10.22,0,14.96-3.69,14.96-11.04,0-6.89-4.65-10.8-13.72-10.8h-15.3v21.84Z"/>
  <path class="cls-1" d="M871.59,653.98l-7.39,19.37h-4.57l21.37-56h5.32l22.28,56h-4.91l-7.56-19.37h-24.53ZM894.61,649.98c-6.48-16.64-9.81-24.65-10.98-28.41h-.08c-1.41,4.25-5.15,14.17-10.39,28.41h21.44Z"/>
  <path class="cls-1" d="M918.87,617.34h19.28c15.96,0,27.02,10.72,27.02,27.53s-10.81,28.49-27.09,28.49h-19.2v-56h0ZM923.35,669.35h14.05c15.37,0,22.94-10.4,22.94-24.24,0-12.32-6.81-23.77-22.94-23.77h-14.05v48.01Z"/>
  <path class="cls-1" d="M982.46,617.34v56h-4.48v-56h4.48Z"/>
  <path class="cls-1" d="M1011.21,621.34h-19.54v-4h43.72v4h-19.61v52.01h-4.57v-52.01Z"/>
  <path class="cls-1" d="M1048.53,617.34v56h-4.48v-56h4.48Z"/>
  <path class="cls-1" d="M1113.7,644.94c0,15.29-8.48,29.2-26.43,29.2-16.37,0-25.93-12.73-25.93-28.8s9.22-28.81,26.52-28.81c15.96,0,25.85,12.09,25.85,28.41h-.01ZM1066.15,645.11c0,12.88,7.39,25.04,21.37,25.04,15.04,0,21.37-11.85,21.37-25.12s-7.15-24.48-21.2-24.48c-14.96,0-21.54,11.92-21.54,24.56Z"/>
  <path class="cls-1" d="M1126.49,673.35v-56h6.65c9.06,13.44,30.33,44.73,34,50.81h.09c-.5-8.08-.41-16.32-.41-25.44v-25.36h4.57v56h-6.15c-8.65-12.97-30.26-45.52-34.41-51.69h-.08c.41,7.36.33,15.52.33,25.68v26h-4.6Z"/>
  <path class="cls-1" d="M1193.9,653.98l-7.39,19.37h-4.57l21.37-56h5.32l22.28,56h-4.91l-7.56-19.37h-24.53ZM1216.92,649.98c-6.48-16.64-9.81-24.65-10.98-28.41h-.08c-1.41,4.25-5.15,14.17-10.39,28.41h21.44Z"/>
  <path class="cls-1" d="M1241.2,617.34h4.48v52.01h31.26l-.83,4.01h-34.91v-56h0Z"/>
  <path class="cls-1" d="M1319.9,621.34h-19.54v-4h43.72v4h-19.61v52.01h-4.57v-52.01Z"/>
  <path class="cls-1" d="M1352.74,617.34h4.48v24.4h34.91v-24.4h4.48v56h-4.48v-27.61h-34.91v27.61h-4.48v-56Z"/>
  <path class="cls-1" d="M1419.14,653.98l-7.39,19.37h-4.57l21.37-56h5.32l22.28,56h-4.91l-7.56-19.37h-24.53ZM1442.16,649.98c-6.48-16.64-9.81-24.65-10.98-28.41h-.08c-1.41,4.25-5.15,14.17-10.39,28.41h21.44Z"/>
  <path class="cls-1" d="M1470.94,617.34v56h-4.48v-56h4.48Z"/>
  <path class="cls-1" d="M1509.25,658.3c1.74,7.45,6.91,11.85,16.46,11.85,10.65,0,14.7-5.13,14.7-11.21s-2.91-10.24-15.7-13.29c-12.3-2.96-17.63-6.8-17.63-14.88,0-7.36,5.57-14.24,18.04-14.24s18.2,7.52,18.95,14.32h-4.65c-1.33-6.01-5.41-10.31-14.54-10.31-8.39,0-12.96,3.76-12.96,10s3.82,8.55,14.54,11.12c16.37,3.91,18.78,10.24,18.78,16.96,0,8.24-6.24,15.36-19.7,15.36-14.54,0-19.87-8.16-20.94-15.68h4.66Z"/>
  <path class="cls-1" d="M1557.95,617.34h20.78c10.65,0,17.96,5.69,17.96,15.61s-7.22,16-18.54,16h-15.63v24.41h-4.57v-56h0ZM1562.53,644.94h16.04c9.39,0,13.3-4.81,13.3-11.85,0-7.52-5.15-11.76-12.96-11.76h-16.37v23.6Z"/>
  <path class="cls-1" d="M1608.57,653.98l-7.39,19.37h-4.57l21.37-56h5.32l22.27,56h-4.9l-7.56-19.37h-24.54ZM1631.59,649.98c-6.48-16.64-9.81-24.65-10.98-28.41h-.08c-1.41,4.25-5.15,14.17-10.39,28.41h21.45Z"/>
  <path class="cls-1" d="M680.85,454.75l-31.67-19.16-8.39-5.08-13.9-8.4c-.56-.33-1.11-.67-1.67-1.02-2.21-1.37-4.42-2.78-6.65-4.13-1.12-.67-2.24-1.32-3.38-1.96-.56-.3-1.13-.61-1.71-.91-.47-.24-.94-.49-1.41-.71-1.08-.53-2.17-1.02-3.27-1.47-.82-.33-1.67-.67-2.5-.97-.58-.21-1.15-.41-1.73-.61-.41-.15-.82-.29-1.24-.41.42.12.83.26,1.24.39-22.78-29.87-58.68-49.16-99.01-49.16h-17.7c-40.3,0-76.18,19.26-98.95,49.08-10.72,3.78-20.1,10.47-29.79,16.38l-37.6,22.92c-4.29,2.59-8.54,5.34-12.87,7.92-1.3.77-2.6,1.53-3.92,2.26-1.32.74-2.64,1.46-3.98,2.12.32.11.62.23.94.35.47.15.92.33,1.38.52.77.3,1.53.61,2.29.96.76.33,1.51.68,2.24,1.05,2.24,1.12,4.41,2.37,6.51,3.72,1.39.89,2.76,1.84,4.1,2.81.89.65,1.79,1.3,2.65,1.99.86.67,1.71,1.37,2.54,2.08.82.71,1.62,1.46,2.41,2.23.35.33.68.68,1,1.02.33.33.67.68.98,1.06.05.06.09.12.15.17.05.05.09.11.15.17.15.18.3.36.45.55.15.17.3.35.45.53.91,1.11,1.76,2.23,2.54,3.38.35.52.7,1.03,1.03,1.56,1.36,2.11,2.57,4.29,3.68,6.57,1.64,3.32,3.07,6.75,4.33,10.22.42,1.17.83,2.34,1.23,3.5,2,6.04,3.57,12.21,4.95,18.4,1.17,5.25,2.15,10.59,3.41,15.85.51,2.11,1.06,4.2,1.67,6.26.32,1.03.64,2.06.98,3.08.42,1.26.89,2.5,1.38,3.72.24.61.5,1.21.76,1.8.53,1.18,1.09,2.35,1.67,3.49.59,1.14,1.21,2.26,1.86,3.35.98,1.64,2.03,3.23,3.15,4.79.38.52.76,1.03,1.15,1.53.15.21.32.42.5.62v71.52c0,64.98,49.87,118.52,113.28,124.24-.09.43-.18.87-.27,1.3-.48,2.09-1.09,4.19-1.88,6.28-.36.97-.76,1.99-.56,2.99.02.12.06.24.09.36.09.23.2.46.32.67.24.39.55.77.86,1.12.11.12.23.23.33.35,6.28,6.66,12.58,13.3,18.87,19.95.47.49.92.97,1.39,1.44.47.48.94.94,1.44,1.37h.01c.95.83,2.2,1.61,3.36,1.47.26-.02.5-.09.74-.2.8-.39,1.29-1.21,1.74-1.99,1.1-1.9,2.36-3.7,3.72-5.42,1.03-1.29,2.12-2.52,3.29-3.69.38-.39.77-.77,1.17-1.15,3.51-3.32,7.56-6.13,10.51-9.97.65-.85,1.26-1.77,1.65-2.78.12-.33.23-.67.3-1.02.04-.23.09-.46.12-.68.11-1.11-.06-2.17-.41-3.23-.8-2.46-2.62-4.79-4.01-7.07-.08-.12-.14-.23-.2-.36,62.3-6.8,110.93-59.82,110.93-124v-71.09c.68-.82,1.33-1.65,1.95-2.52.92-1.29,1.8-2.64,2.63-4,.41-.7.8-1.41,1.2-2.12.77-1.41,1.5-2.87,2.18-4.32,1-2.2,1.91-4.44,2.7-6.7,3.01-8.58,4.39-17.91,6.38-26.79.17-.76.35-1.52.53-2.28.56-2.28,1.18-4.53,1.86-6.78.89-3,1.89-5.98,2.92-8.9,2.65-7.55,6-15.47,10.72-21.96,1.1-1.52,2.3-2.96,3.57-4.35,1.86-2,3.91-3.88,6.06-5.63.86-.7,1.74-1.37,2.63-2.02.44-.32.89-.64,1.35-.96h.01c1.05-.73,2.11-1.41,3.17-2.06,1.08-.67,2.17-1.3,3.27-1.9,1.09-.61,2.19-1.17,3.32-1.71l3.94-1.81c.18-.08.36-.15.56-.23.18-.08.38-.14.56-.23.39-.15.76-.33,1.08-.56l-11.86-7.02v.02ZM487.86,367.23h17.7c35.47,0,67.36,15.7,89.09,40.51.62.11,1.26.23,1.88.38-.62-.14-1.24-.26-1.86-.36-.2-.03-.39-.08-.58-.11-.74-.14-1.48-.26-2.23-.36-.94-.14-1.88-.26-2.82-.35-1.73-.18-3.45-.29-5.18-.35-5.82-.2-11.66.26-17.4,1.3-1.62.3-3.24.65-4.86,1.03-1.83.44-3.63.93-5.42,1.46-1.79.53-3.56,1.11-5.32,1.74-1.76.64-3.48,1.3-5.21,2.02-1.73.73-3.42,1.49-5.12,2.29,0,0-.01,0-.01-.02-5.45-3.55-11.86-6.08-18.05-8.02l-6.13-1.65c-.23-.06-.5-.11-.82-.17-.62-.11-1.35-.23-1.94-.41-.3-.09-.56-.2-.74-.32-.11-.06-.21-.17-.32-.29-.17-.2-.35-.42-.5-.64-.11-.15-.21-.3-.3-.42-.04-.08-.09-.14-.12-.18l-2.74-3.73-11.78-16.28c-1.77,2.11-3.29,4.46-4.89,6.72l-6,8.24-3.98,5.48s-.11.14-.17.21c-.06.09-.14.2-.21.3-.06.06-.11.14-.15.2-.11.14-.21.27-.32.38-.09.11-.18.18-.26.21-.09.05-.2.08-.3.12-.23.08-.47.14-.73.18-.67.14-1.39.23-1.91.36l-7.42,2.15c-6.42,2.09-12.07,4.9-18.08,7.9l-.2-.12c-1.36-.85-2.86-1.55-4.39-2.2-1.53-.65-3.07-1.23-4.57-1.82-14.18-5.55-29.68-7.63-44.69-4.93,21.73-24.78,53.61-40.47,89.06-40.47h-.01ZM564.57,563c4.13-4.82,7.24-9.56,9.89-15.35,4.54,7.11,8.07,15.14,11.48,22.86,2.97,6.78,5.89,13.45,8.31,20.46-3.79,1.15-7.59,1.9-11.52,2.31-5.17.62-10.48.64-15.64.11,3.09-10.04,1.48-20.86-2.51-30.38ZM541.26,659.73c-.88-6.08-2.82-11.86-5.33-17.46l-4.48-9.33-3.59-6.96c-.62-1.21-1.51-2.65-1.73-4.01-.26-1.74.27-3.7.7-5.37.89-3.49,2.03-7.11,4.16-10.04,1.68-2.28,4.03-3.37,6.77-3.81h.2c1.53-.06,3.14.61,4.27,1.62,1.74,1.58,1.65,3.96,2.12,6.11l1.33,5.28c2.68,8.72,6.75,16.91,9.06,25.79,1.39,5.43,2.44,10.89,2.77,16.5.5,8.59-.48,17.35-3.15,25.56-2.7,8.31-7.19,16.09-12.43,23.06-2.45,3.26-5.21,6.3-7.92,9.34l-2.3,2.5c4.01-9.53,6.66-19.8,8.36-29.97,1.61-9.52,2.6-19.2,1.2-28.82ZM542.64,600.85c-2.68-1.29-5.81-1.27-8.59-.27-4.53,1.64-6.39,5.26-8.33,9.33-.35-4.2-.18-8.13,2.24-11.74.59-.86,1.7-1.74,2.09-2.68.24-.59.05-.74-.23-1.27-.55-.27-.64-.42-1.24-.26-2.26.62-4.1,4.14-5.18,6.02-.86-1.7-1.68-3.47-2.71-5.07-2.7-4.2-6.65-8.01-11.15-10.22-6.57-3.28-13.92-4.13-20.93-1.73-8.74,2.97-13.77,8.92-17.73,17.02-.89-1.88-2.35-5.01-4.53-5.66-.51-.15-.77-.09-1.24.14-.26.36-.36.59-.38,1.03-.03.96,1.92,2.76,2.41,3.75.85,1.71,1.61,3.88,1.8,5.79.17,1.55-.11,3.2-.26,4.75l-1.73-3.52c-1.74-2.91-4.54-5.23-7.88-6.04-4.8-1.14-8.12.65-12.04,3.12l-.35-.8-.21-.53c-1.03-2.81-.06-6.58.68-9.36,1.39-5.26,3.29-10.38,5.6-15.31l6.1-12.1c3.15-6.55,5.82-13.27,7.1-20.46,1.5-8.4.95-16.93.45-25.39-.32-5.39-.47-10.98-2.32-16.11-2.44-6.81-7.53-12.54-13.58-16.38-1.79-1.14-3.74-2.02-5.65-2.93l1.45.18c8.37,1.26,16.66,5.69,21.7,12.61,3.95,5.43,5.86,11.66,7.13,18.17,2.41,12.3,2.29,25.71-.5,37.92-.67,2.99-1.5,5.91-2.5,8.81-.74,2.18-2.09,4.85-2.36,7.1-.06.46.15.53.42.88.42.2.68.33,1.17.27.53-.08.89-.53,1.27-.88l3.42-3.2c4.8-4.37,9.9-8.57,14.3-13.35,2.39-2.62,4.51-5.45,6.62-8.3l2.62,3.75c1.71,2.24,3.65,4.37,5.63,6.37,4.04,4.08,8.54,7.8,12.81,11.63l3.03,2.73c.29.26.94.93,1.29,1.05.21.06.45.06.68.09.64-.24.7-.29,1.09-.85-.15-2.43-1.77-5.48-2.54-7.81-.95-2.88-1.76-5.89-2.39-8.87-3.01-14.14-3.59-30.12.74-44.03,1.06-3.41,2.35-6.75,4.32-9.74,5.19-7.92,14.61-12.54,23.66-14.38-.15.27-.83.55-1.14.7-1.3.73-2.59,1.38-3.83,2.23-4.88,3.32-9.39,8.04-11.83,13.45-2.58,5.69-2.7,12.7-3.15,18.84-.59,7.98-1.26,15.87-.14,23.84.64,4.45,2.03,8.71,3.6,12.89l13.25,28.38c1.12,3.02,2.14,6.11,2.82,9.27.35,1.59.68,3.37.55,5.02-.14,1.7-.71,3.32-1.41,4.87-1.17-1.14-2.56-2.06-4.03-2.76ZM496.92,714.76c1.29-1.53,2.54-3.08,4.03-4.43,3.59-3.22,7.89-5.31,12.46-6.7.42.74.05,3.78.02,4.78l-.45,16.44c-6.2,2.46-11.28,5.16-16.13,9.78-1.21-1.61-2.92-2.94-4.57-4.08-1.94-1.35-3.92-2.59-6.03-3.61l-5.16-2.23-.06-.82-.48-20.23c6.48,2.11,12.42,5.4,16.39,11.1ZM480.38,700.79l-1.05-23.59c7.01,2.18,13.52,5.99,17.63,12.21l2.38-3.25c3.83-4.35,9.8-7.64,15.63-8.02l-1.11,19.55c0,.33,0,2.82-.11,2.96-.14.18-3.57,1.09-4.06,1.26-4.72,1.73-9.27,4.61-12.55,8.43-3.3-2.84-6.56-5.43-10.51-7.31-2.01-.96-4.12-1.61-6.25-2.24ZM515.14,675.54s-.94.05-1.01.06c-.88.05-1.73.2-2.58.38-5.94,1.24-10.49,4.51-14.64,8.83-5.22-5.32-10.86-8.36-17.9-10.63l-2.62-27.9,3.95.55c6.77,1.46,12.96,6.26,16.69,12l2.51-3.28c4.85-5.46,10.45-8.78,17.8-9.18l-1.8,24.68c-.04.55-.33,4.45-.39,4.49ZM516.94,643.49c-1.02.03-2.04.04-3.04.17-6.33.77-11.56,4.88-15.84,9.3l-.98,1.17c-4.45-4.38-9.09-8.51-15.34-9.98-1.92-.45-3.72-.53-5.68-.53l-1.18-9.36c-.12-.85-.26-1.73-.18-2.58.12-1.24.62-2.49,1.08-3.63,1-2.59,2.13-4.97,3.83-7.19,3.83-5.02,9.13-7.63,15.29-8.43h.06c5.5-.36,11.16,1.15,15.43,4.72,3.77,3.14,6.18,7.07,7.77,11.66.32.9.85,2.03.89,2.97.11,2.59-.62,5.66-.98,8.25-.11.74-.36,3.4-.44,3.44-.02.02-.59.02-.68.02ZM517.67,621.08c-.68-1.06-1.44-2.11-2.27-3.05-4.32-4.93-10.84-8.05-17.36-8.43-2.77-.11-5.44.17-8.1.94-5.3,1.53-10.19,5.32-13.37,9.8-1.17,1.65-2.09,3.55-3.07,5.34-1.13-3.38-1.54-7.08-1.77-10.63-.48-8.22,1.59-16.06,7.13-22.3,4.51-5.08,10.43-7.89,17.19-8.28,2.5-.14,5.09.21,7.48.91,6.66,1.94,12.15,6.46,15.45,12.57,3.44,6.37,3.71,13.06,2.76,20.1-.33,2.44-.73,4.96-1.44,7.33-.3-.17-.55-.8-.73-1.11l-1.89-3.19ZM452.34,675.73c.15,6.7.82,13.62,2.24,20.17,1.7,7.83,4.38,15.47,7.44,22.84l-1.79-1.82c-4.3-4.66-8.54-9.42-12.04-14.73-5.54-8.46-9.13-18.44-10.92-28.39-2.27-12.77-1-25.12,3.2-37.34l7.03-19.69c.47-1.5.91-3.02,1.23-4.56.41-2,.29-4.93,1.5-6.55,1.29-1.73,3.21-2.41,5.25-2.68,1.36-.03,2.62.12,3.89.64,3.18,1.27,5.29,4.5,6.54,7.55.85,2.05,1.39,4.22,1.98,6.34.27.94.76,2.21.79,3.19.01.29-.29.93-.39,1.2-.56,1.38-1.35,2.7-2.06,4.02l-5.42,10.31c-1.23,2.4-2.42,4.79-3.44,7.3-4.15,10.15-5.29,21.33-5.03,32.22ZM440.72,584.03c.39,1.33,1.21,2.9,1.36,4.26l-4.29,1.97-8.91,2.53-.09-7.37c-.29-4.7-.8-9.48-.15-14.18.3-2.15.95-4.23,1.61-6.31l9.22,7.75c-.18,3.96.08,7.55,1.24,11.35ZM433.18,563.06c-9.12-9.04-13.54-21.77-14.4-34.37-.3-4.52-.12-9.13-.11-13.65l-.05-18.99c2.86-3.82,6.65-7.08,10.93-9.19,2.27-1.12,4.69-1.85,7.12-2.58,5.75,1.17,11.93,4.26,16.3,8.19,3.92,3.52,6.97,7.9,8.51,12.97.74,2.43,1.03,4.99,1.3,7.49l.82,10.71c-1.83-3.41-4.38-6.73-7.65-8.87-4.98-3.28-10.42-3.72-15.95-1.61-2.2.83-4.29,1.9-6.6,2.35-1.48.3-2.91.47-4.42.36-1.08-.06-2.73-.68-3.73-.44-.3.09-.35.3-.5.55.09.71.61,1.2,1.06,1.71,1.51,1.67,3.41,3.22,5.3,4.43.95.59,2.64,1.11,3.12,2.15l.14.3c2.42,4.97,5.56,10.72,11.15,12.54,2.71.9,5.06.44,7.51-.83,2.59,1.67,4.86,3.93,7.15,5.99l2.62,2.06c-1.97,10.62-7.01,20.01-11.83,29.55-1.7-.59-3.45-1.09-5.09-1.84-4.88-2.23-8.94-5.23-12.71-8.99ZM426.17,593.04c-4.89.82-9.95.58-14.84-.04l-10.6-2.35c1.33-5.67,2.8-11.29,4.76-16.76,3.3-9.19,7.98-18.25,13.66-26.2,1.79,3.26,3.2,6.61,5.22,9.75l2.62,3.82c.17.21.97,1.11,1,1.32.09.59-.79,2.62-.98,3.32-.73,2.4-1.12,4.81-1.32,7.3-.5,6.58.58,13.23.48,19.84ZM497,452.97l20.13,33.48-20.04,50.25-20.28-50.02,20.19-33.7ZM475.1,484.14l-12.36-10.78-11.4-10.16c.95-.68,2.65-.99,3.8-1.35l10.22-3.08,29.62-8.81.36.08c-.44,2.02-2.41,4.46-3.47,6.28l-16.78,27.83ZM498.37,449.79l44.54,13.26-11.19,9.72-12.8,11.27-20.55-34.25ZM496.83,446.94l-34.53-11.04,34.65-45.28,33.97,45.16-26.64,8.92c-2.26.73-5.12,2.18-7.45,2.24ZM457.65,437.27l33.82,10.72c-.11.18-.42.21-.61.27l-7.8,2.32-21.58,6.55-15.9,4.73,20.04,17.76,5.56,4.82c.91.8,2,1.65,2.73,2.62.53.71.89,1.94,1.24,2.79l3.04,7.51,9.62,22.92,7.92,20.75c-3.68,6.45-8.63,11.41-14.15,16.26l-6.95,6.02c2.83-8.66,4.82-17.5,5.1-26.67.21-6.67-.06-13.01-1.04-19.63-1.35-9.22-4.03-18.08-10.56-25.01-5.86-6.23-14.9-11.01-23.56-11.24-6.31-.17-12.39.83-17.93,4.03-2.91,1.68-5.45,3.85-7.87,6.14l.06-14.09c.51-11.12,3.85-21.77,9.48-31.34,10.54-17.91,28.99-29.62,48.84-34.74.35-.08.17-.09.55.06l-20.03,26.41ZM453.97,524.84l-1.77-1.81c-5.13-4.35-9.9-1.93-15.75-1.58-2.04.12-4.82-1.64-6.3-2.96,5.44-.35,10-3.34,15.34-4.08h.26c3.95-.36,7.95,1.58,10.78,4.23,2.03,1.91,3.48,4.46,4.68,6.96.33.71.88,1.7.91,2.49-1.83,2.05-3.38,3.41-5.86,4.64.03-3.25-.38-5.23-2.29-7.9ZM453.79,532.41c-.33,1.05-1.21,1.82-2.17,2.31-1.73.87-4.06.62-5.83.06-4.65-2.03-6.74-6.07-8.83-10.47l8.84-1.38,1.61.23c2.38.55,4.42,2.02,5.68,4.14.86,1.44,1.21,3.47.7,5.11ZM463.06,530.85c.42,3.47.32,6.93.08,10.42l-3.89-3.12-3.3-2.9c2.86-1,4.82-2.47,7.12-4.4ZM449.17,576.78l-2.64,6.89-1.24,3.2c-2.15-4.28-2.88-7.95-2.97-12.7l6.85,2.61ZM547.49,520.12c-3.03.36-5.1,1.96-6.94,4.28-1.82,2.7-2.42,5.04-2.66,8.3-2.54-1.06-4.5-2.34-5.97-4.72.67-2.72,2.53-5.85,4.32-7.99,3.24-3.84,7.21-5.47,12.12-5.93,4,.17,7.06,1.77,10.72,3.19,1.65.64,3.33,1.06,5.06,1.49-1.91,1.49-4.38,2.67-6.84,2.56-3.39-.14-6.26-1.61-9.8-1.17ZM555.45,527.72c-1.65,3.55-4.13,5.81-7.8,7.16-.97.21-1.94.33-2.94.35-1.39,0-2.47-.15-3.48-1.2-.55-.58-1.18-1.4-1.14-2.24v-.24c.11-1.85.59-3.37,1.62-4.92,1.57-2.4,3.88-3.58,6.62-4.13h.58c2.24-.06,5.54.7,7.19,2.28.3.94-.26,2.09-.65,2.94ZM537.64,535.18l-2.88,2.72-3.74,3.2c-.53-3.46-.47-6.87-.41-10.36,2.24,2.03,4.23,3.28,7.03,4.44ZM533.64,542l6.44-5.58c.79.41,1.56.8,2.44,1.02,3.03.74,6.23.09,8.86-1.56,4.27-2.65,6.42-7.13,7.48-11.89.88-.2,1.73-.58,2.53-.94,2.42-1.11,4.51-2.52,6.51-4.28.85-.74,1.79-1.58,2.2-2.65-.11-.64-.2-.61-.71-1.02-.82-.06-1.47.3-2.24.5-1.18.32-2.56.41-3.76.18-2.63-.5-5.13-1.74-7.59-2.78-4-1.68-8.37-1.88-12.54-.71-5.56,1.55-9.51,5.45-12.3,10.36-.03-1.93.27-3.9.44-5.82.5-5.87.82-12.48,3.85-17.67,4.72-8.1,13.24-12.51,21.97-14.85.47-.05.89-.03,1.36.05,3.66.55,7.15,3.41,9.87,5.76,2.39,2.08,4.75,4.26,6.6,6.84v19.23c.01,4.79.27,9.74-.08,14.52-.47,6.34-2.15,12.76-4.94,18.48-5.36,11.07-15.16,20.22-26.79,24.28-5.19-9.42-9.69-19.07-11.95-29.62.59-.71,1.57-1.27,2.33-1.84ZM547.81,583.95l-2.86-7.3,5.65-2.72.24.21c.36,4.25-.47,7.98-2.24,11.83-.29-.17-.65-1.64-.79-2.03ZM553.55,580.48c.5-2.73.35-5.52.11-8.27,3.24-2,5.86-4.37,8.62-6.96,2.6,6.3,4,13.58,3.29,20.39-.26,2.53-.91,4.99-1.59,7.42l-7.72-2.02-5.68-2.2c1.23-2.72,2.45-5.4,2.98-8.36ZM575.08,492.06c-.27.06-.39-.24-.58-.42-3.06-3.05-6.42-6.04-10.22-8.15-7.22-4-15.08-3.02-22.73-.76-8.97,2.64-16.98,8.31-21.44,16.65-2.74,5.14-4.16,10.6-5.09,16.32-2.6,15.96-.47,32.23,4.19,47.6-.7-.35-1.33-1.08-1.92-1.59l-3.36-3.03c-6-5.32-11.72-10.59-15.8-17.64l21.47-53.19c.47-1.21,1.7-2.18,2.65-3.06l6.01-5.31,14.72-12.92,3.69-3.17c.56-.5,1.3-.99,1.71-1.62l-45.61-13.53,32.74-10.89-19.33-26.7c15.28,3.59,28.91,11.25,39.87,22.48,3.85,3.91,6.98,8.39,9.78,13.09,4.24,7.08,7.45,14.99,8.59,23.21,1.02,7.46.71,15.12.64,22.65ZM326.38,472.27c-2.83-2.34-5.85-4.55-8.98-6.48l-7.8-4.46,47.2-28.68,17.37-10.71c3.5-2.11,6.97-4.32,10.66-6.05.64-.3,1.29-.58,1.94-.85,2.67-1.08,5.36-1.94,8.09-2.61,4.91-1.21,9.93-1.84,15.04-2.15,2.39-.21,4.94-.02,7.33.12,11.02.7,21.78,3.96,31.74,8.69-3.47,2.05-6.69,4.82-9.68,7.52-8.98,8.13-15.61,17.81-19.88,29.15-1.03,2.75-1.76,5.54-2.53,8.36l-8.89-4.66c-10.84-4.72-22.46-6.83-34.09-6.14-2.15.12-4.32.35-6.47.67-1.68.24-3.38.56-5.06.93-5.09,1.12-9.96,2.85-14.81,4.76-7.56,3.16-14.89,7.34-21.19,12.59ZM328.38,474.31c11.46-8.77,24.23-14.67,38.27-17.17,2.12-.38,4.29-.68,6.47-.91.05,0,.09-.02.14-.02,4.03-.47,8.47-.23,12.49.24,11.12,1.33,20.97,4.96,30.49,10.8-1.01,4.4-1.01,9.04-1.09,13.53-15.17-1.24-31.11.64-45.78,5.17-2.04.62-4.07,1.3-6.06,2.03-.2.08-.38.14-.58.21l-19.6,9.19c-4.01-8.46-8.03-16.41-14.75-23.09ZM363.3,562.08l-1.39-2.03c-6.77-11.68-8.71-24.79-11.63-37.75-1.68-7.45-3.63-14.65-6.19-21.87,2.74-1.9,5.82-3.46,8.8-4.95,3.38-1.7,6.86-3.2,10.42-4.5,2-.77,4.01-1.46,6.06-2.08,10.62-3.31,21.72-5.1,32.77-5.48l13.08.29c.03,1.76.12,28.24,0,28.5-.21.42-4.19,3.09-4.8,3.58-4.21,3.28-8.18,6.84-12.02,10.53-8.44,8.1-16.1,16.7-23.44,25.82l-5.59,7.19-4.23,5.43-1.83-2.67ZM369.36,563.67c2.92-4,6.1-7.89,9.21-11.68,8.13-9.93,16.61-19.34,26.2-27.92l10.43-8.51c.42.82.09,3.11.06,4.08l-.03,7.98c.11,2.97.42,5.92.95,8.83l1.33,6.08c.06.27.55,1.64.5,1.85-.08.3-.83,1.14-1.04,1.43l-2.59,3.9c-2.76,4.32-5.12,8.78-7.33,13.41-4.07,8.57-6.5,17.52-9.12,26.59-3.98-1.88-7.98-3.47-11.8-5.69-2.26-1.3-4.35-2.9-6.45-4.41-3.68-2.79-7.21-5.96-10.33-9.44-.86-.95-1.7-1.94-2.5-2.94.8-1.2,1.65-2.38,2.5-3.55ZM477.47,758.93c-60.5-5.28-108.11-56.29-108.11-118.24v-64.74c.42.43.86.85,1.3,1.27,2.38,2.24,4.86,4.32,7.47,6.25,3.12,2.29,6.41,4.35,9.84,6.19.58.3,1.15.61,1.73.9.86.44,1.74.86,2.64,1.27.89.41,1.79.8,2.7,1.18,0,0,0,.01.05.03.06,0,.18.04.33.11.09,0,.18.04.27.08.14.05.27.09.42.14.12.03.26.08.39.12.26.08.53.17.8.26.23.06.45.14.67.21.21.06.39.12.55.18.23.06.38.12.39.12,1.98.65,4.01,1.21,6.06,1.68.77.17,1.56.33,2.33.49,2.35.44,4.73.76,7.1.94.74.06,1.48.11,2.24.14,6,.23,12.12-.44,17.98-2,.86-.23,1.71-.47,2.56-.74.5-.15.98-.32,1.47-.49,1.44-.5,2.88-1.05,4.27-1.67l.26-.11h.01s.06.14.08.21c.09.44-.09,1.14-.21,1.67-.03.14-.06.27-.08.38-.06.33-.12.68-.18,1.02v.03c-.11.71-.2,1.42-.24,2.14-.03.35-.04.7-.04,1.05.01,1.77.42,3.67,1.12,5.29.53,1.23,1.27,2.26,1.62,3.47.06.24.12.49.15.73.04.29.06.59.03.91-.05.56-.12,1.12-.23,1.68-.11.58-.23,1.14-.38,1.7-.14.56-.3,1.12-.47,1.67-.15.56-.33,1.11-.5,1.64l-3.32,9.15c-.94,2.49-1.86,4.99-2.76,7.51-.29.85-.58,1.68-.86,2.53-.38,1.12-.74,2.24-1.08,3.38-1.77,5.83-3.09,11.77-3.44,17.9-.41,7.08.38,13.98,1.56,20.96,0,0,3.44,17.05,13.89,30.87.88,1.15,1.79,2.31,2.73,3.44.92,1.14,1.89,2.26,2.88,3.37.98,1.11,2,2.2,3.03,3.26.51.55,1.05,1.08,1.57,1.59,4.74,4.72,9.93,9.01,15.39,12.62-.86-1.62-1.73-3.23-2.57-4.82-2.58-4.84-5.01-9.66-7.07-14.82-2.86-7.19-5.01-14.7-6.3-22.36-.23-1.27-.41-2.56-.58-3.85-.85-6.3-1.11-12.65-.73-18.97.14-2.2.32-4.4.61-6.58.18-1.46.41-2.9.68-4.34.41-2.17.92-4.31,1.56-6.43,2.56-8.49,7.16-16.09,11.12-23.97.92,5.35,1.73,10.74,2.42,16.14.71,5.41,1.3,10.84,1.83,16.28.3,3.15.58,6.31.82,9.46.38,4.75.7,9.5.95,14.23.27,4.75.5,9.49.68,14.23.08,1.96.15,3.91.21,5.87.14,3.58.24,7.14.33,10.71,0,0,.02.82.02,2.15.01.2.01.39.01.61.02.58.02,1.21.03,1.91.02.42.02.88.02,1.35,0,.23.01.47.01.71,0,.56,0,1.14.03,1.73v1.18c.03,2.23.06,4.6.11,6.84.01.41.01.82.01,1.21,0,.59.02,1.17.03,1.74.03,1.82.05,3.44.08,4.7.01.41.01.77.01,1.09,0,.49.02.87.02,1.14.01.26.01.39.01.41.03,1.35.05,2.72.06,4.06.06,4.93.06,9.8-.41,14.64h.01ZM516.53,767.49c1.18,2.17,1.89,3.64,1.62,6.14-.24,2.21-1.38,4.25-2.86,5.9-1.18,1.3-2.56,2.37-3.97,3.4-1.24.92-2.15,2.24-3.23,3.38-2.53,2.68-5.15,5.28-7.86,7.8-.23.23-.47.44-.79.51-.29.08-.61,0-.89-.09-2.01-.67-3.56-2.24-5-3.79-4.36-4.64-8.62-9.39-12.75-14.24-.77-.91-1.57-1.88-1.85-3.05-.32-1.43.2-2.88.62-4.28.41-1.3.74-2.62,1-3.94.41-1.99.67-3.99.82-6.02.45-5.31.21-10.72.06-15.99l-.44-15.56c6.59,2.08,11.51,6.19,15.95,11.33,4.39-5.61,9.53-8.52,15.95-11.3l-.35,16.25c-.12,4.96-.06,10.21.98,15.18.42,2.05,1.01,4.04,1.82,5.96.35.82.74,1.62,1.17,2.41ZM518.06,761.84c.17.59.36,1.14.56,1.65-.21-.5-.39-1.06-.56-1.65ZM624.06,576.08v64.62c0,61.46-46.87,112.15-106.69,118.11-.03-.15-.04-.3-.08-.46-.05-.24-.09-.48-.12-.74-.08-.5-.15-1.02-.21-1.53-.14-1.02-.24-2.05-.33-3.08-.03-.36-.06-.73-.08-1.06-.08-.97-.12-1.93-.17-2.84-.01-.26-.03-.5-.03-.73-.01-.27-.01-.53-.03-.8-.01-.62-.04-1.21-.04-1.77-.05-2.08-.03-3.7-.02-4.45l.53-25.1,2.6-49.78c.18-2.55.38-5.1.58-7.63.2-2.53.41-5.08.64-7.61.76-8.43,1.71-16.82,3.18-25.24l.06.21c.85,2.61,2.36,5.19,3.69,7.67.2.36.38.71.56,1.06.74,1.47,1.47,2.93,2.18,4.4.71,1.47,1.39,2.96,2.06,4.45.44,1,.86,2,1.27,3,.53,1.35,1.03,2.72,1.5,4.09,3.86,11.51,3.24,23.34,1.41,35.16-.38,2.46-.82,4.92-1.32,7.34-1.5,7.28-3.56,14.42-6.28,21.33-.59,1.55-1.23,3.08-1.91,4.58-.33.77-.67,1.53-1.03,2.28-.35.76-.7,1.49-1.08,2.23l-4.54,9.03c2.91-1.91,5.62-4.11,8.24-6.42.86-.77,1.74-1.55,2.59-2.34,1.21-1.11,2.39-2.23,3.57-3.37.58-.56,1.17-1.14,1.74-1.73.56-.58,1.14-1.15,1.7-1.74,1.12-1.18,2.21-2.4,3.27-3.64.91-1.08,1.8-2.18,2.66-3.34.06-.08.12-.17.2-.24.03-.05.06-.09.09-.12.03-.05.06-.09.09-.14.65-.87,1.27-1.74,1.88-2.59.59-.87,1.17-1.71,1.73-2.56.33-.5.65-1.02.97-1.52.94-1.5,1.82-2.99,2.62-4.43.08-.15.15-.29.24-.42.35-.65.68-1.29,1.02-1.91.08-.15.15-.3.23-.45.36-.7.7-1.38,1.02-2.05.55-1.12,1.04-2.21,1.51-3.28,1.47-3.37,2.53-6.4,3.29-8.92.21-.71.39-1.38.58-2,.42-1.58.71-2.9.91-3.9.24-1.2.35-1.96.38-2.2.41-2.93.71-5.9.83-8.84.09-2.03-.08-4.11-.2-6.14-.2-3.4-.64-6.73-1.24-10.03-.18-1.02-.39-2.02-.61-3.02-.08-.29-.14-.56-.2-.85-.41-1.81-.89-3.59-1.39-5.39-.51-1.79-1.08-3.56-1.67-5.34-.43-1.21-.85-2.44-1.27-3.66-.24-.62-.47-1.23-.7-1.85-.32-.85-.64-1.68-.97-2.53-.74-1.9-1.47-3.81-2.18-5.72-.71-1.93-1.39-3.85-2-5.81-.14-.42-.27-.86-.39-1.29-.51-1.74-.95-3.5-1.3-5.28l.32-.38c.77-.97,1.38-1.96,1.85-2.94.18-.39.33-.79.48-1.18.35-1.02.59-2.06.71-3.12.06-.39.09-.79.12-1.2.08-1.44,0-2.96-.14-4.54-.04-.38-.08-.76-.12-1.14h.02c1.48.67,2.98,1.24,4.5,1.73,1.24.4,2.47.74,3.72,1.05,6.69,1.58,13.63,1.79,20.57,1.3,5.25-.36,10.58-1.15,15.6-2.82l4.06-1.3c.47-.23.95-.46,1.42-.7.71-.35,1.42-.7,2.14-1.05.79-.4,1.56-.8,2.33-1.21,1.17-.62,2.3-1.26,3.44-1.96,1.54-.94,3.06-1.94,4.53-2.99s2.89-2.14,4.29-3.28h.02c1.39-1.15,2.76-2.32,4.07-3.53.86-.8,1.71-1.61,2.54-2.43.45-.45.91-.9,1.35-1.35-.44.45-.89.91-1.35,1.35ZM624.06,570.27c-3.09,3.38-6.42,6.49-9.98,9.43-5.19,4.2-10.93,7.57-17.1,10.1-4.03-10.5-8.16-21.02-13.22-31.06l-5.94-11.29-1.36-2.43c-.14-.24-.53-.77-.58-1-.14-.73.74-2.97.95-3.73.45-1.7.86-3.46,1.12-5.2,1-6.92.8-13.95.82-20.93,6.53,5.35,12.58,11.29,18.49,17.29,9.5,9.71,18.7,20.11,26.79,31.09,1.03,1.4,2.04,2.81,3.03,4.22-.98,1.2-1.98,2.37-3.03,3.5ZM636.2,550.87c-1.65,4.11-3.71,7.93-6.09,11.63-.44.68-.89,1.37-1.35,2.03-1.5-2.23-3.07-4.41-4.71-6.55-2.39-3.15-4.91-6.22-7.44-9.25-7.57-9.12-15.7-17.81-24.22-26.04l-13.13-12.1c-.08-.09-.48-.44-.53-.56-.08-.21.01-.94.01-1.18v-25.35l.38-.29c15.17-.14,30.36,1.14,44.92,5.57.88.27,1.74.55,2.6.83,1.17.39,2.32.79,3.45,1.21,6.89,2.56,13.4,5.78,19.88,9.31l-13.8,50.74ZM650.91,497.49l-13.78-6.95c-2.32-.94-4.65-1.88-7.01-2.73-2-.74-4.01-1.43-6.06-2.03-.56-.17-1.12-.33-1.68-.49-14.36-3.97-28.82-4.84-43.65-5.02l-.92-13.17c1.5-1.14,3.29-1.99,4.95-2.85,9.33-4.87,19.87-7.46,30.36-7.87,2.42-.09,4.85-.05,7.25.14,2.15.17,4.29.42,6.42.79,13.96,2.34,27.44,8.71,38.92,16.56-6.57,6.9-10.99,14.96-14.81,23.62ZM676.67,465.53c-3.14,1.94-5.98,4.11-8.8,6.46-5.04-3.81-10.72-7.01-16.42-9.69l-12.95-5.1c-4.13-1.27-8.27-2.21-12.42-2.81-2.15-.32-4.3-.55-6.45-.65-11.04-.68-22.03,1.09-32.73,5.46-3.38,1.38-6.59,3.09-9.81,4.81-2.88-11.77-8.83-22.81-16.96-31.79-4.59-5.05-9.77-9.36-15.3-13.35,2.12-1.15,4.54-2.03,6.8-2.88,8.12-3.06,16.69-4.93,25.35-5.49,7-.52,14.63.08,21.55,1.91,1.14.29,2.26.62,3.35.99,2.38.79,4.68,1.74,6.92,2.79,6.5,3.05,12.52,6.99,18.69,10.77l33.6,20.34,15.34,9.3c2.51,1.49,5,3.23,7.65,4.44l.3.15-7.72,4.34Z"/>
</svg>