<?xml version="1.0" encoding="UTF-8"?>
<svg id="_Слой_1" data-name="Слой 1" xmlns="http://www.w3.org/2000/svg" version="1.1" viewBox="0 0 1920 1080">
  <defs>
    <style>
      .cls-1 {
        fill: #903314;
      }

      .cls-1, .cls-2 {
        stroke-width: 0px;
      }

      .cls-2 {
        fill: #dfc5ae;
      }
    </style>
  </defs>
  <rect class="cls-1" width="1920" height="1080"/>
  <g>
    <g>
      <path class="cls-2" d="M363.49,579.69l-.77.25h43.05l-.77-.25c-7.2-2.34-8.49-2.77-8.77-7.69v-.75s.08-.22.08-.22v-.03c-.06-1.2-.08-21.65-.08-33.73,0-11.54.02-69.17.08-70.29v-.03s-.08-.22-.08-.22v-.75c.28-4.93,1.57-5.36,8.77-7.7l.77-.25h-43.05l.77.25c7.44,2.42,8.65,3.25,8.81,9.31v69.67s0,33.1,0,33.1c-.15,5.61-.76,6.7-8.81,9.32Z"/>
      <path class="cls-2" d="M494.49,565.57l.21.54c.74,1.89,1.5,3.85,1.5,5.96,0,.13-.03.3-.06.48-.04.23-.09.5-.09.75-.32,2.05-3,4.46-5.99,5.35l-.06.02-.57,1.33h40.07v-1.51h-.75c-1.48,0-2.45-.93-3.15-3.03-1.1-3.63-35.56-89.18-45.52-113.02-.66-1.48-3.01-4.13-4.17-4.13h-39.2l.31.23c.2.15,1.92,1.43,2.57,1.43,4.52,0,8.72,1.81,12.48,5.37l-30.67,103.55c-2.18,4.35-6.75,8.51-11.94,10.85l-.55.25h27.74l-4.33-1.81c-1.69-.77-3.09-1.86-4.16-3.23-1.09-1.56-1.69-3.41-1.69-5.23,0-.76.16-1.54.31-2.3l16.96-57.27h28.03l22.72,55.41ZM471.04,508.19h-26.76l11.38-38.44,15.38,38.44Z"/>
      <path class="cls-2" d="M592.9,460.35c-8.55,4.14-15.91,12.39-21.88,24.53l-.47.94c-1.26,2.52-2.27,4.71-3.34,7.21v-25.24c0-6.23,1.26-7.08,9.11-9.54l.8-.25h-44.71l1.09.34c7.3,2.28,8.82,2.76,8.82,7.89v105.37c0,4.95-1.49,5.45-8.67,7.84l-1.19.4h44.61l-.76-.25c-7.85-2.62-9.11-3.49-9.11-9.7v-68.72c1.53-5.78,3.62-10.9,6.22-15.23,2.52-4.49,6.11-9.97,11.48-12.57,2.23-1.11,4.52-1.7,6.65-1.7,1.26,0,2.49.16,3.55.46,3.7.94,6.78,3.78,8.9,8.21,1.94,4.05,3.01,9.34,3.01,14.89v79.31c-.89,2.36-2.93,3.14-8.64,5.04l-.76.25h44.63l-.77-.25c-6.26-2.03-8.2-3.11-8.95-6.27v-73.24c1.56-5.53,3.49-10.16,5.91-14.14,3.61-6.41,7.41-10.53,11.64-12.58,2.03-1.1,4.34-1.7,6.48-1.7,1.26,0,2.49.16,3.55.46,3.7.94,6.78,3.78,8.9,8.21,1.94,4.05,3.01,9.34,3.01,14.89v76.06c0,5.25-1.74,5.99-9.11,8.29l-.81.25h45.49l-.81-.25c-7.37-2.3-9.11-3.04-9.11-8.29v-81.83c0-1-.29-2.08-.57-3.12-.07-.27-.15-.54-.21-.8-1.17-6.7-3.72-12.71-7.35-17.36-5.18-6.28-13.28-10.18-21.14-10.18-3.54,0-7.11.81-10.34,2.35-8.55,4.14-15.91,12.39-21.88,24.53l-.47.94c-.41.87-.83,1.71-1.27,2.59-.63,1.26-1.28,2.55-1.9,3.96,0-.19.01-.37.02-.55.04-.8.07-1.55-.04-2.38-.08-.63-.2-1.31-.31-1.96-.11-.65-.23-1.32-.31-1.94-1.17-6.7-3.71-12.7-7.35-17.36-5.26-6.37-13.22-10.18-21.3-10.18-3.54,0-7.11.81-10.34,2.35Z"/>
      <path class="cls-2" d="M258.8,567.37c7.09,8.23,22.78,13.9,39.97,14.46,2.15.05,3.94.08,5.58.08.58,0,1.14,0,1.7,0h.08c.34,0,.68-.01,1.03-.02h.4c4.64-.08,8.68-.36,12.38-.86,12.43-1.72,22.05-6.03,28.6-12.79,5.73-5.92,8.76-13.49,8.76-21.86,0-14.52-18.45-25.01-34.73-34.26-1.08-.62-2.16-1.23-3.22-1.83-.89-.51-1.81-1.03-2.73-1.56-15.58-8.87-34.98-19.9-34.73-33.31,0-3.31,1.99-7.7,5.07-11.19,3.47-3.94,7.81-6.21,11.89-6.23.05,0,.1,0,.15,0,7.63,0,14.65,3.07,20.32,8.89,5.27,5.41,8.83,12.69,10.03,20.49.57,3.68-.04,6.95-.68,10.42-.06.34-.13.69-.19,1.03l-.03.18.18-.03c10.94-1.7,18.56-6.33,23.3-14.15,1.5-2.48,1.91-3.95.59-6.66-1.09-2.24-2.22-4.56-4.03-6.66-7.09-8.23-22.78-13.9-39.97-14.46-5.09-.12-10.12-.19-15.74.36-5.07.52-9.89,1.57-14.73,3.2-14.54,4.96-21.61,14.04-21.61,27.76,0,17.19,24.81,31.04,42.93,41.15,2.26,1.26,4.4,2.46,6.36,3.59,17.15,9.92,25.85,19.53,25.85,28.56s-10.26,18.32-20.7,19.24c-.84,0-1.66,0-2.45,0-.94.02-1.91-.04-2.88-.14h-.16c-.16-.03-.32-.05-.49-.08l-.23-.03c-.37-.05-.74-.11-1.1-.17-.29-.05-.57-.1-.85-.16-.07-.01-.14-.03-.21-.05l-.14-.03c-6.26-1.39-11.92-5-16.37-10.44-4.18-5.1-7.05-11.6-8.07-18.3-.57-3.69.04-6.97.68-10.43l.22-1.19-.18.03c-10.94,1.7-18.57,6.33-23.3,14.15-1.5,2.48-1.91,3.95-.59,6.66,1.09,2.24,2.22,4.56,4.03,6.66Z"/>
    </g>
    <g>
      <path class="cls-2" d="M1223.47,519.15c0-10.82-2.81-21.51-8.12-30.93-11.13-19.56-32.08-31.71-54.66-31.71-10.72,0-21.36,2.81-30.77,8.12-19.56,11.13-31.71,32.02-31.71,54.51,0,10.75,2.86,21.45,8.28,30.92,5.58,9.81,13.67,17.93,23.39,23.47,9.45,5.39,20.21,8.24,31.12,8.24s21.36-2.81,30.92-8.12c19.46-11.08,31.55-31.96,31.55-54.51ZM1202.64,546.73c0,11.34-4.24,19.76-12.25,24.36-3.46,1.95-7.21,2.94-11.16,2.94-7.54,0-15.88-3.74-24.13-10.8-7.96-6.82-15.64-16.54-22.2-28.1-8.94-15.8-13.86-31.27-13.86-43.58,0-11.34,4.24-19.76,12.25-24.36,3.46-1.95,7.21-2.95,11.16-2.95,7.6,0,15.97,3.74,24.19,10.82,7.91,6.81,15.57,16.58,22.14,28.24,8.94,15.8,13.86,31.22,13.86,43.42Z"/>
      <path class="cls-2" d="M1304.73,573.52c-.32,2.05-3,4.46-5.99,5.35l-.06.02-.57,1.33h40.07v-1.51h-.75c-1.48,0-2.45-.93-3.15-3.03-1.1-3.63-35.56-89.19-45.52-113.02-.66-1.48-3.01-4.13-4.17-4.13h-39.2l.31.23c.2.15,1.92,1.43,2.57,1.43,4.52,0,8.72,1.81,12.48,5.37l-30.67,103.55c-2.18,4.35-6.75,8.51-11.94,10.85l-.55.25h27.74l-4.33-1.81c-1.69-.77-3.09-1.85-4.16-3.23-1.09-1.56-1.69-3.41-1.69-5.23,0-.76.16-1.54.31-2.3l16.96-57.27h28.03l22.72,55.41.21.54c.74,1.9,1.5,3.85,1.5,5.96,0,.13-.03.3-.06.48-.04.23-.09.5-.09.75ZM1279.73,508.42h-26.76l11.38-38.44,15.38,38.44Z"/>
      <path class="cls-2" d="M1501.65,458.51l.77-.25h-43.05l.77.25c7.44,2.42,8.65,3.25,8.81,9.31v69.67s0,33.1,0,33.1c-.15,5.61-.76,6.7-8.81,9.32l-.77.25h43.05l-.77-.25c-7.2-2.34-8.49-2.77-8.77-7.69v-.75s.08-.22.08-.22v-.03c-.06-1.2-.08-21.65-.08-33.73,0-11.54.02-69.17.08-70.29v-.03s-.08-.22-.08-.22v-.75c.28-4.93,1.57-5.36,8.77-7.7Z"/>
      <path class="cls-2" d="M1351.47,567.17c7.09,8.23,22.78,13.9,39.97,14.46,2.14.05,3.93.08,5.56.08.59,0,1.16,0,1.72-.01h.08c.33,0,.66-.01.99-.02h.44c4.64-.08,8.68-.36,12.38-.86,12.43-1.73,22.05-6.03,28.6-12.79,5.73-5.92,8.76-13.49,8.76-21.86,0-14.52-18.45-25-34.73-34.25-1.09-.62-2.16-1.23-3.22-1.84-.89-.51-1.8-1.03-2.73-1.56-15.59-8.87-34.98-19.9-34.73-33.32,0-3.31,1.99-7.7,5.07-11.19,3.47-3.94,7.81-6.21,11.89-6.23.05,0,.1,0,.15,0,7.63,0,14.65,3.07,20.32,8.89,5.27,5.41,8.83,12.69,10.03,20.49.57,3.68-.04,6.95-.68,10.42-.06.34-.13.69-.19,1.03l-.03.18.18-.03c10.94-1.7,18.56-6.33,23.3-14.15,1.5-2.48,1.91-3.95.59-6.66-1.09-2.24-2.22-4.56-4.03-6.66-7.09-8.23-22.78-13.9-39.97-14.46-5.09-.12-10.12-.19-15.74.36-5.07.52-9.89,1.57-14.73,3.2-14.54,4.96-21.61,14.04-21.61,27.76,0,17.19,24.81,31.04,42.93,41.15,2.26,1.26,4.4,2.46,6.36,3.59,17.15,9.92,25.85,19.53,25.85,28.56s-10.26,18.32-20.7,19.24c-.84,0-1.66,0-2.45,0-.95,0-1.92-.04-2.88-.14-.03,0-.06,0-.08,0h-.07c-.17-.02-.33-.05-.5-.07l-.22-.03c-.37-.05-.74-.1-1.1-.17-.29-.05-.57-.1-.85-.16-.07-.01-.15-.03-.22-.05l-.13-.03c-6.26-1.39-11.92-5-16.37-10.44-4.18-5.1-7.05-11.6-8.07-18.3-.57-3.69.04-6.97.68-10.44l.22-1.19-.18.03c-10.94,1.7-18.57,6.33-23.3,14.15-1.5,2.48-1.91,3.95-.59,6.66,1.09,2.24,2.22,4.56,4.03,6.67Z"/>
      <path class="cls-2" d="M1585.55,512.51c-1.08-.62-2.16-1.23-3.22-1.83-.89-.51-1.81-1.03-2.73-1.56-15.58-8.87-34.98-19.9-34.73-33.31,0-3.31,1.99-7.7,5.07-11.19,3.47-3.94,7.81-6.21,11.89-6.23.05,0,.1,0,.15,0,7.63,0,14.65,3.07,20.32,8.89,5.27,5.41,8.83,12.69,10.03,20.49.57,3.69-.04,6.96-.68,10.43l-.22,1.2.18-.03c10.94-1.7,18.56-6.33,23.3-14.15,1.5-2.48,1.91-3.95.59-6.66-1.09-2.24-2.22-4.56-4.03-6.66-7.09-8.23-22.78-13.9-39.97-14.46-5.09-.12-10.12-.19-15.74.36-5.07.52-9.89,1.57-14.73,3.2-14.54,4.96-21.61,14.04-21.61,27.76,0,17.19,24.81,31.04,42.93,41.15,2.26,1.26,4.4,2.46,6.36,3.59,17.15,9.92,25.85,19.53,25.85,28.56s-10.26,18.32-20.7,19.24c-.84,0-1.66,0-2.45,0h-.14c-.91,0-1.83-.05-2.75-.14-.03,0-.06,0-.08,0h-.07c-.17-.02-.34-.05-.51-.07l-.21-.03c-.37-.05-.74-.1-1.1-.17-.29-.05-.57-.1-.85-.16-.07-.01-.15-.03-.22-.05l-.14-.03c-6.26-1.39-11.92-5-16.37-10.44-4.18-5.1-7.05-11.6-8.07-18.3-.57-3.69.04-6.96.68-10.42.06-.34.13-.68.19-1.03l.03-.18-.18.03c-10.94,1.7-18.57,6.33-23.3,14.15-1.5,2.48-1.91,3.95-.59,6.66,1.09,2.24,2.22,4.56,4.03,6.67,7.09,8.23,22.78,13.9,39.97,14.46,2.14.05,3.93.08,5.56.08.59,0,1.16,0,1.72-.01h.08c.33,0,.66-.01.99-.02h.44c4.64-.08,8.68-.36,12.38-.86,12.43-1.73,22.05-6.03,28.6-12.79,5.73-5.92,8.76-13.49,8.76-21.86,0-14.52-18.45-25-34.73-34.25Z"/>
    </g>
  </g>
  <path class="cls-2" d="M1061.19,418.26l-27.78-16.78-7.36-4.45-12.2-7.36c-.49-.29-.97-.58-1.46-.89-1.94-1.2-3.88-2.43-5.83-3.61-.98-.58-1.97-1.16-2.96-1.71-.49-.27-1-.53-1.5-.8-.41-.21-.82-.43-1.24-.62-.94-.47-1.9-.89-2.87-1.29-.72-.29-1.46-.58-2.19-.85-.5-.19-1.01-.36-1.51-.53-.36-.13-.72-.25-1.09-.36.37.11.73.23,1.09.35-19.98-26.16-51.48-43.06-86.86-43.06h-15.53c-35.35,0-66.82,16.87-86.81,42.99-9.41,3.31-17.63,9.17-26.13,14.35l-32.99,20.07c-3.76,2.27-7.49,4.68-11.29,6.93-1.14.68-2.29,1.34-3.44,1.98-1.16.65-2.31,1.28-3.49,1.86.28.09.54.2.82.31.41.13.81.29,1.21.45.01,0,.01.01.01.01.68.27,1.34.53,2.01.84.66.29,1.33.6,1.97.92,1.97.98,3.87,2.07,5.71,3.25,1.22.78,2.42,1.61,3.6,2.46.78.57,1.57,1.14,2.32,1.74.76.58,1.5,1.2,2.23,1.82.72.62,1.42,1.28,2.11,1.95.31.29.6.6.88.89.29.29.58.6.86.93.04.05.08.11.13.15.04.04.08.09.13.15.13.16.27.32.4.48.13.15.27.31.4.46.8.97,1.54,1.95,2.23,2.96.31.45.61.9.9,1.37,1.2,1.85,2.26,3.76,3.23,5.75,1.43,2.91,2.7,5.91,3.8,8.95.37,1.02.73,2.05,1.08,3.07,1.75,5.29,3.14,10.69,4.34,16.12,1.02,4.6,1.89,9.27,2.99,13.88.45,1.85.93,3.68,1.46,5.49.28.9.56,1.81.86,2.7.37,1.1.78,2.19,1.21,3.25.21.53.44,1.06.66,1.58.47,1.04.96,2.06,1.46,3.06.52,1,1.06,1.98,1.63,2.94.86,1.43,1.78,2.83,2.76,4.2.33.45.66.9,1.01,1.34.13.19.28.37.44.54v62.64c0,56.91,43.75,103.81,99.37,108.82-.08.37-.16.76-.24,1.14-.43,1.83-.96,3.67-1.65,5.5-.32.85-.66,1.74-.49,2.62.01.11.05.21.08.32.08.2.17.4.28.58.21.35.48.68.76.98.09.11.2.2.29.31,5.51,5.83,11.04,11.65,16.55,17.47.41.43.81.85,1.22,1.26.41.43.82.82,1.26,1.2h.01c.84.73,1.93,1.41,2.95,1.29.23-.01.44-.08.65-.17.7-.35,1.13-1.06,1.53-1.74.97-1.66,2.07-3.24,3.27-4.74.9-1.13,1.86-2.21,2.88-3.23.33-.35.68-.68,1.02-1.01,3.08-2.91,6.63-5.37,9.22-8.73.57-.74,1.1-1.55,1.45-2.43.11-.29.2-.58.27-.89.04-.2.08-.4.11-.6.09-.97-.05-1.9-.36-2.83-.7-2.15-2.3-4.2-3.52-6.19-.07-.11-.12-.2-.17-.32,54.66-5.95,97.31-52.4,97.31-108.61v-62.27c.6-.72,1.17-1.45,1.71-2.21.81-1.13,1.58-2.31,2.31-3.51.36-.61.7-1.24,1.05-1.86.68-1.24,1.32-2.51,1.91-3.79.88-1.93,1.67-3.89,2.37-5.87,2.64-7.52,3.85-15.69,5.59-23.46.15-.66.31-1.33.46-1.99.49-1.99,1.04-3.97,1.63-5.94.78-2.63,1.66-5.23,2.56-7.8,2.32-6.62,5.26-13.55,9.41-19.24.97-1.33,2.02-2.59,3.14-3.81,1.63-1.75,3.43-3.4,5.31-4.93.76-.61,1.53-1.2,2.31-1.77.39-.28.78-.56,1.18-.84h.01c.92-.64,1.85-1.24,2.78-1.81.94-.58,1.9-1.14,2.87-1.66.96-.53,1.93-1.02,2.91-1.5l3.45-1.58c.16-.07.32-.13.49-.2.16-.07.33-.12.49-.2.35-.13.66-.29.94-.49l-10.4-6.15ZM891.9,341.6h15.53c31.11,0,59.09,13.75,78.16,35.48.54.09,1.1.2,1.65.33-.54-.12-1.09-.23-1.63-.32-.17-.03-.35-.07-.5-.09-.65-.12-1.3-.23-1.95-.32-.82-.12-1.65-.23-2.47-.31-1.51-.16-3.03-.25-4.54-.31-5.1-.17-10.23.23-15.26,1.14-1.42.27-2.84.57-4.26.9-1.61.39-3.19.81-4.76,1.28-1.57.46-3.12.97-4.66,1.53-1.54.56-3.06,1.14-4.57,1.77h-.01c-1.51.64-3,1.3-4.49,2.01,0,0-.01,0-.01-.01-4.78-3.11-10.4-5.33-15.84-7.03l-5.38-1.45c-.2-.05-.44-.09-.72-.15-.54-.09-1.18-.2-1.7-.36-.27-.08-.49-.17-.65-.28-.09-.05-.19-.15-.28-.25-.15-.17-.31-.37-.44-.56-.09-.13-.19-.27-.27-.37-.04-.07-.08-.12-.11-.16l-2.4-3.27-10.34-14.26c-1.55,1.85-2.88,3.91-4.29,5.89l-5.26,7.21h0s-3.49,4.8-3.49,4.8c-.04.04-.09.12-.15.19-.05.08-.12.17-.19.27-.05.05-.09.12-.13.17-.09.12-.19.24-.28.33-.08.09-.16.16-.23.19-.08.04-.17.07-.27.11-.2.07-.41.12-.64.16-.58.12-1.22.2-1.67.32l-6.51,1.89c-5.63,1.83-10.59,4.29-15.86,6.92l-.17-.11c-1.2-.74-2.51-1.36-3.85-1.93-1.34-.57-2.7-1.08-4.01-1.59-12.44-4.86-26.04-6.68-39.21-4.32,19.06-21.71,47.03-35.45,78.13-35.45ZM959.19,513.08c3.63-4.22,6.35-8.37,8.68-13.44,3.99,6.23,7.08,13.26,10.07,20.02,2.6,5.94,5.17,11.78,7.29,17.92-3.32,1.01-6.66,1.66-10.11,2.02-4.53.54-9.19.56-13.72.09,2.71-8.79,1.3-18.27-2.21-26.61ZM938.74,597.8c-.77-5.33-2.47-10.39-4.68-15.29l-3.93-8.17-3.15-6.1c-.54-1.06-1.33-2.32-1.51-3.51-.23-1.53.24-3.24.61-4.7.78-3.06,1.78-6.23,3.65-8.79,1.47-1.99,3.53-2.95,5.94-3.33h.17c1.34-.05,2.75.53,3.75,1.42,1.53,1.38,1.45,3.47,1.86,5.35l1.17,4.62c2.35,7.64,5.93,14.81,7.94,22.59,1.22,4.76,2.14,9.54,2.43,14.45.44,7.52-.43,15.2-2.76,22.39-2.36,7.28-6.31,14.1-10.91,20.19-2.15,2.86-4.57,5.51-6.95,8.18l-2.02,2.19c3.52-8.34,5.85-17.34,7.33-26.25,1.41-8.34,2.28-16.82,1.05-25.24ZM939.95,546.22c-2.35-1.13-5.1-1.12-7.53-.24-3.97,1.43-5.61,4.61-7.31,8.17-.31-3.68-.16-7.12,1.97-10.28.52-.76,1.49-1.53,1.83-2.35.21-.52.04-.65-.2-1.12-.48-.24-.56-.37-1.09-.23-1.98.54-3.6,3.63-4.54,5.27-.76-1.49-1.47-3.04-2.38-4.44-2.36-3.68-5.83-7.01-9.78-8.95-5.77-2.87-12.21-3.61-18.36-1.51-7.67,2.6-12.08,7.81-15.56,14.91-.78-1.65-2.06-4.38-3.97-4.96-.45-.13-.68-.08-1.09.12-.23.32-.32.52-.33.9-.03.84,1.69,2.42,2.11,3.28.74,1.5,1.41,3.4,1.58,5.07.15,1.36-.09,2.8-.23,4.16l-1.51-3.08c-1.53-2.55-3.99-4.58-6.91-5.29-4.21-1-7.12.57-10.56,2.74l-.31-.7-.19-.47c-.9-2.46-.05-5.77.6-8.2,1.22-4.61,2.88-9.09,4.92-13.4l5.35-10.6c2.76-5.74,5.1-11.62,6.23-17.92,1.32-7.36.84-14.83.4-22.24-.28-4.72-.41-9.62-2.03-14.11-2.14-5.97-6.6-10.99-11.92-14.35-1.57-1-3.28-1.77-4.96-2.56l1.28.16c7.35,1.1,14.61,4.98,19.04,11.04,3.47,4.76,5.14,10.22,6.26,15.92,2.11,10.77,2.01,22.52-.44,33.21-.58,2.62-1.32,5.18-2.19,7.72-.65,1.91-1.83,4.25-2.07,6.22-.05.4.13.46.37.77.37.17.6.29,1.02.24.46-.07.78-.47,1.12-.77l3-2.8c4.21-3.83,8.69-7.51,12.54-11.69,2.1-2.3,3.96-4.77,5.81-7.27l2.3,3.28c1.5,1.97,3.2,3.83,4.94,5.58,3.55,3.57,7.49,6.83,11.24,10.19l2.66,2.39c.25.23.82.81,1.13.92.19.05.4.05.6.08.56-.21.61-.25.96-.74-.13-2.13-1.55-4.8-2.23-6.84-.84-2.52-1.54-5.15-2.1-7.77-2.64-12.38-3.15-26.38.65-38.57.93-2.99,2.06-5.91,3.79-8.53,4.56-6.93,12.82-10.99,20.75-12.59-.13.24-.73.48-1,.61-1.14.64-2.27,1.21-3.36,1.95-4.28,2.91-8.24,7.04-10.38,11.78-2.26,4.98-2.36,11.12-2.76,16.5-.52,6.99-1.1,13.9-.12,20.88.56,3.89,1.78,7.63,3.16,11.29l11.62,24.86c.98,2.64,1.87,5.35,2.47,8.12.31,1.39.6,2.95.48,4.4-.12,1.49-.62,2.91-1.24,4.26-1.02-1-2.25-1.81-3.53-2.42ZM899.84,646c1.13-1.34,2.23-2.7,3.53-3.88,3.15-2.82,6.92-4.65,10.93-5.87.37.65.04,3.31.01,4.18l-.4,14.4c-5.43,2.15-9.9,4.52-14.15,8.57-1.06-1.41-2.56-2.58-4.01-3.57-1.7-1.18-3.44-2.27-5.29-3.16l-4.53-1.95-.05-.72-.42-17.72c5.69,1.85,10.89,4.73,14.37,9.72ZM885.34,633.76l-.92-20.66c6.15,1.91,11.86,5.25,15.46,10.69l2.09-2.84c3.36-3.81,8.6-6.7,13.71-7.03l-.97,17.12c-.01.29,0,2.47-.09,2.59-.12.16-3.14.96-3.56,1.1-4.14,1.51-8.13,4.04-11.01,7.39-2.9-2.48-5.75-4.76-9.22-6.4-1.77-.84-3.61-1.41-5.49-1.97ZM915.83,611.64s-.82.04-.89.05c-.77.04-1.51.17-2.26.33-5.21,1.09-9.21,3.95-12.85,7.73-4.58-4.66-9.53-7.32-15.7-9.31l-2.3-24.43,3.47.48c5.94,1.28,11.37,5.49,14.64,10.51l2.21-2.87c4.25-4.78,9.17-7.69,15.61-8.04l-1.58,21.62c-.04.48-.29,3.89-.35,3.93ZM917.41,583.57c-.89.03-1.79.04-2.67.15-5.55.68-10.14,4.28-13.9,8.14l-.86,1.02c-3.91-3.84-7.97-7.45-13.46-8.74-1.69-.4-3.27-.47-4.98-.47l-1.04-8.2c-.11-.74-.23-1.51-.16-2.26.11-1.09.54-2.18.94-3.18.88-2.27,1.87-4.36,3.36-6.3,3.36-4.4,8.01-6.68,13.42-7.39h.05c4.82-.32,9.79,1.01,13.54,4.13,3.31,2.75,5.42,6.19,6.82,10.22.28.78.74,1.78.78,2.6.09,2.27-.54,4.96-.86,7.23-.09.65-.32,2.98-.39,3.02-.01.01-.52.01-.6.01ZM918.05,563.95c-.6-.93-1.26-1.85-1.99-2.67-3.79-4.32-9.51-7.05-15.22-7.39-2.43-.09-4.77.15-7.11.82-4.65,1.34-8.94,4.66-11.73,8.58-1.02,1.45-1.83,3.11-2.7,4.68-1-2.96-1.36-6.2-1.55-9.31-.43-7.2,1.4-14.07,6.26-19.53,3.96-4.45,9.15-6.91,15.08-7.25,2.19-.12,4.46.19,6.56.8,5.85,1.7,10.65,5.66,13.55,11.01,3.02,5.58,3.25,11.44,2.42,17.6-.29,2.14-.64,4.34-1.26,6.42-.27-.15-.48-.7-.64-.97l-1.66-2.79ZM860.73,611.81c.13,5.87.72,11.93,1.97,17.67,1.49,6.86,3.84,13.55,6.52,20.01l-1.57-1.59c-3.77-4.08-7.49-8.25-10.56-12.9-4.86-7.41-8.01-16.15-9.58-24.87-1.99-11.19-.88-22,2.8-32.71l6.16-17.24c.41-1.32.8-2.64,1.08-4,.36-1.75.25-4.32,1.32-5.74,1.13-1.51,2.82-2.11,4.61-2.35,1.2-.03,2.3.11,3.41.56,2.79,1.12,4.64,3.95,5.74,6.62.74,1.79,1.22,3.69,1.74,5.55.24.82.66,1.94.69,2.79.01.25-.25.81-.35,1.05-.49,1.21-1.18,2.36-1.81,3.52l-4.76,9.03c-1.08,2.1-2.13,4.2-3.02,6.39-3.64,8.89-4.64,18.68-4.41,28.22ZM850.54,531.49c.35,1.17,1.06,2.54,1.2,3.73l-3.76,1.73-7.81,2.22-.08-6.46c-.25-4.12-.7-8.3-.13-12.42.27-1.89.84-3.71,1.41-5.53l8.09,6.79c-.16,3.47.07,6.62,1.09,9.94ZM843.93,513.13c-8-7.92-11.88-19.06-12.63-30.1-.27-3.96-.11-8-.09-11.96l-.04-16.63c2.51-3.35,5.83-6.2,9.59-8.05,1.99-.98,4.12-1.62,6.24-2.26,5.05,1.02,10.47,3.73,14.29,7.17,3.44,3.08,6.11,6.92,7.47,11.36.65,2.13.9,4.37,1.14,6.56l.72,9.38c-1.61-2.99-3.84-5.9-6.71-7.77-4.37-2.87-9.14-3.25-13.99-1.41-1.93.73-3.76,1.66-5.79,2.06-1.3.27-2.55.41-3.88.32-.94-.05-2.39-.6-3.27-.39-.27.08-.31.27-.44.48.08.62.53,1.05.93,1.5,1.33,1.46,2.99,2.82,4.65,3.88.84.52,2.31.97,2.74,1.89l.12.27c2.13,4.36,4.88,9.39,9.78,10.99,2.38.78,4.44.39,6.59-.73,2.27,1.46,4.26,3.44,6.27,5.25l2.3,1.81c-1.73,9.3-6.15,17.52-10.38,25.88-1.49-.52-3.03-.96-4.46-1.61-4.28-1.95-7.84-4.58-11.15-7.88ZM837.78,539.38c-4.29.72-8.73.5-13.02-.04l-9.3-2.06c1.17-4.97,2.46-9.88,4.17-14.68,2.9-8.05,7-15.98,11.98-22.94,1.57,2.86,2.8,5.79,4.58,8.54l2.3,3.35c.15.19.85.97.88,1.16.08.52-.69,2.3-.86,2.91-.64,2.1-.98,4.21-1.16,6.39-.44,5.77.51,11.58.43,17.38ZM899.91,416.71l17.66,29.32-17.58,44.01-17.79-43.81,17.71-29.52ZM880.7,444.01l-10.84-9.45-10-8.9c.84-.6,2.32-.86,3.33-1.18l8.97-2.7,25.99-7.72.32.07c-.39,1.77-2.11,3.91-3.04,5.5l-14.72,24.38ZM901.12,413.92l39.07,11.61-9.82,8.52-11.23,9.87-18.03-30ZM899.76,411.42l-30.29-9.67,30.4-39.66,29.8,39.55-23.37,7.81c-1.98.64-4.49,1.91-6.54,1.97ZM865.4,402.96l29.67,9.39c-.09.16-.37.19-.53.24l-6.84,2.03-18.93,5.74-13.95,4.15,17.58,15.56,4.88,4.22c.8.7,1.75,1.45,2.39,2.3.47.62.78,1.7,1.09,2.44l2.67,6.58,8.44,20.07,6.95,18.17c-3.23,5.65-7.57,9.99-12.41,14.24l-6.1,5.27c2.48-7.59,4.22-15.33,4.48-23.36.19-5.85-.05-11.4-.92-17.19-1.18-8.08-3.53-15.84-9.26-21.91-5.14-5.46-13.07-9.65-20.67-9.84-5.54-.15-10.87.73-15.73,3.53-2.55,1.47-4.78,3.37-6.91,5.38l.05-12.34c.45-9.74,3.37-19.06,8.32-27.45,9.25-15.69,25.43-25.95,42.85-30.42.31-.07.15-.08.48.05l-17.58,23.13ZM862.17,479.65l-1.55-1.58c-4.5-3.81-8.69-1.69-13.82-1.38-1.79.11-4.22-1.43-5.53-2.59,4.77-.31,8.77-2.92,13.46-3.57h.23c3.47-.32,6.97,1.38,9.46,3.71,1.78,1.67,3.06,3.91,4.11,6.1.29.62.77,1.49.8,2.18-1.61,1.79-2.96,2.99-5.14,4.07.03-2.84-.33-4.58-2.01-6.92ZM862.01,486.28c-.29.92-1.06,1.59-1.9,2.02-1.51.76-3.56.54-5.11.05-4.08-1.78-5.91-5.31-7.75-9.17l7.76-1.21,1.41.2c2.09.48,3.88,1.77,4.98,3.63.76,1.26,1.06,3.04.61,4.48ZM870.14,484.91c.37,3.04.28,6.07.07,9.13l-3.41-2.74-2.9-2.54c2.51-.88,4.22-2.17,6.24-3.85ZM857.96,525.14l-2.31,6.03-1.09,2.8c-1.89-3.75-2.52-6.96-2.6-11.12l6,2.29ZM944.2,475.52c-2.66.32-4.48,1.71-6.08,3.75-1.59,2.36-2.13,4.41-2.34,7.27-2.23-.93-3.95-2.05-5.23-4.13.58-2.38,2.22-5.13,3.79-7,2.84-3.36,6.32-4.8,10.63-5.19,3.51.15,6.19,1.55,9.41,2.79,1.45.56,2.92.93,4.44,1.3-1.67,1.3-3.84,2.34-6,2.25-2.98-.12-5.49-1.41-8.6-1.02ZM951.19,482.18c-1.45,3.11-3.63,5.09-6.84,6.27-.85.19-1.7.29-2.58.31-1.22.01-2.17-.13-3.06-1.05-.48-.5-1.04-1.22-1-1.97v-.21c.09-1.62.52-2.95,1.42-4.3,1.38-2.1,3.4-3.14,5.81-3.61h.5c1.97-.05,4.86.61,6.31,1.99.27.82-.23,1.83-.57,2.58ZM935.57,488.71l-2.52,2.38-3.28,2.8c-.46-3.03-.41-6.02-.36-9.07,1.97,1.78,3.71,2.87,6.16,3.89ZM932.06,494.68l5.65-4.89c.69.36,1.37.7,2.14.89,2.66.65,5.46.08,7.77-1.37,3.75-2.32,5.63-6.24,6.56-10.42.77-.17,1.51-.5,2.22-.82,2.13-.97,3.96-2.21,5.71-3.75.74-.65,1.57-1.38,1.93-2.32-.09-.56-.17-.53-.62-.89-.72-.05-1.29.27-1.97.44-1.04.28-2.25.36-3.29.16-2.31-.44-4.5-1.53-6.66-2.43-3.51-1.47-7.35-1.65-11-.62-4.88,1.36-8.34,4.77-10.79,9.07-.03-1.69.24-3.41.39-5.1.44-5.14.72-10.93,3.37-15.48,4.15-7.09,11.61-10.96,19.28-13.01.41-.04.78-.03,1.2.04,3.21.48,6.27,2.99,8.66,5.05,2.1,1.82,4.17,3.73,5.79,5.99v16.85c.01,4.2.24,8.53-.07,12.71-.41,5.55-1.89,11.17-4.33,16.18-4.7,9.7-13.3,17.71-23.5,21.27-4.56-8.25-8.5-16.7-10.48-25.95.52-.62,1.38-1.12,2.05-1.61ZM944.48,531.42l-2.51-6.39,4.96-2.38.21.19c.32,3.72-.41,6.99-1.97,10.36-.25-.15-.57-1.43-.69-1.78ZM949.52,528.38c.44-2.39.31-4.84.09-7.24,2.84-1.75,5.14-3.83,7.56-6.1,2.29,5.51,3.51,11.89,2.88,17.86-.23,2.22-.8,4.37-1.4,6.5l-6.78-1.77-4.98-1.93c1.08-2.38,2.15-4.73,2.62-7.32ZM968.41,450.94c-.24.05-.35-.21-.51-.37-2.68-2.67-5.63-5.29-8.97-7.13-6.34-3.51-13.23-2.64-19.94-.66-7.87,2.31-14.89,7.28-18.81,14.59-2.4,4.5-3.65,9.29-4.46,14.29-2.29,13.98-.41,28.23,3.68,41.69-.61-.31-1.17-.94-1.69-1.39l-2.95-2.66c-5.26-4.66-10.28-9.27-13.86-15.45l18.84-46.59c.41-1.06,1.49-1.91,2.32-2.68l5.27-4.65,12.91-11.32,3.24-2.78c.49-.44,1.14-.86,1.5-1.42l-40.02-11.85,28.72-9.54-16.95-23.38c13.4,3.15,25.36,9.86,34.98,19.69,3.37,3.43,6.12,7.35,8.58,11.47,3.72,6.2,6.54,13.13,7.53,20.33.89,6.54.62,13.25.56,19.83ZM750.24,433.6c-2.48-2.05-5.13-3.99-7.88-5.67l-6.84-3.91,41.41-25.12,15.24-9.38c3.07-1.85,6.11-3.79,9.35-5.3.56-.27,1.13-.5,1.7-.74,2.34-.94,4.7-1.7,7.09-2.29,4.3-1.06,8.72-1.61,13.19-1.89,2.1-.19,4.33-.01,6.43.11,9.67.61,19.1,3.47,27.85,7.61-3.04,1.79-5.87,4.22-8.49,6.59-7.88,7.12-13.7,15.6-17.44,25.53-.9,2.4-1.54,4.85-2.22,7.32l-7.8-4.08c-9.51-4.13-19.7-5.98-29.91-5.38-1.89.11-3.79.31-5.67.58-1.47.21-2.96.49-4.44.81-4.46.98-8.74,2.5-12.99,4.17-6.63,2.76-13.06,6.43-18.59,11.03ZM751.99,435.4c10.06-7.68,21.26-12.85,33.57-15.04,1.86-.33,3.76-.6,5.67-.8.04,0,.08-.01.12-.01,3.53-.41,7.43-.2,10.96.21,9.75,1.17,18.4,4.34,26.74,9.46-.89,3.85-.89,7.92-.96,11.85-13.31-1.09-27.29.56-40.16,4.53-1.79.54-3.57,1.14-5.31,1.78-.17.07-.33.12-.5.19l-17.19,8.05c-3.52-7.41-7.04-14.37-12.94-20.22ZM782.63,512.27l-1.22-1.78c-5.94-10.23-7.64-21.71-10.2-33.07-1.47-6.52-3.19-12.83-5.43-19.16,2.4-1.66,5.1-3.03,7.72-4.33,2.96-1.49,6.02-2.8,9.14-3.95,1.75-.68,3.52-1.28,5.31-1.82,9.31-2.9,19.05-4.46,28.75-4.8l11.48.25c.03,1.54.11,24.74,0,24.96-.19.37-3.68,2.71-4.21,3.14-3.69,2.87-7.17,5.99-10.55,9.22-7.4,7.09-14.12,14.63-20.57,22.61l-4.9,6.3-3.71,4.76-1.61-2.34ZM787.94,513.66c2.56-3.51,5.35-6.91,8.08-10.23,7.13-8.7,14.57-16.94,22.98-24.46l9.15-7.45c.37.72.08,2.72.05,3.57l-.03,6.99c.09,2.6.37,5.18.84,7.73l1.17,5.33c.05.24.48,1.43.44,1.62-.07.27-.73,1-.92,1.25l-2.27,3.41c-2.42,3.79-4.49,7.69-6.43,11.74-3.57,7.51-5.7,15.34-8,23.29-3.49-1.65-7-3.04-10.35-4.98-1.98-1.14-3.81-2.54-5.66-3.87-3.23-2.44-6.32-5.22-9.06-8.26-.76-.84-1.49-1.7-2.19-2.58.7-1.05,1.45-2.09,2.19-3.11ZM882.79,684.68c-53.08-4.62-94.84-49.3-94.84-103.56v-56.7c.37.37.76.74,1.14,1.12,2.09,1.97,4.26,3.79,6.55,5.47,2.74,2.01,5.62,3.81,8.64,5.42.5.27,1.01.53,1.51.78.76.39,1.53.76,2.31,1.12.78.36,1.57.7,2.37,1.04h0s.01.01.04.03c.05.01.16.04.29.09.08.01.16.04.24.07.12.04.24.08.37.12.11.03.23.07.35.11.23.07.47.15.7.23.2.05.4.12.58.19.19.05.35.11.48.16.2.05.33.11.35.11,1.74.57,3.52,1.06,5.31,1.47.68.15,1.37.29,2.05.43,2.06.39,4.14.66,6.23.82.65.05,1.3.09,1.97.12,5.26.2,10.63-.39,15.77-1.75.76-.2,1.5-.41,2.25-.65.44-.13.86-.28,1.29-.43,1.26-.44,2.52-.92,3.75-1.46l.23-.09h.01c.04.05.05.12.07.19.08.39-.08,1-.19,1.46-.03.12-.05.24-.07.33-.05.29-.11.6-.16.89v.03c-.09.62-.17,1.25-.21,1.87-.03.31-.04.61-.04.92.01,1.55.37,3.22.98,4.64.47,1.08,1.12,1.98,1.42,3.04.05.21.11.43.13.64.04.25.05.52.03.8-.04.49-.11.98-.2,1.47h0c-.09.5-.2,1-.33,1.49-.12.49-.27.98-.41,1.46-.13.49-.29.97-.44,1.43l-2.91,8.01c-.82,2.18-1.63,4.37-2.42,6.58-.25.74-.51,1.47-.76,2.22-.33.98-.65,1.97-.94,2.96-1.55,5.1-2.71,10.31-3.02,15.68-.36,6.2.33,12.25,1.37,18.36,0,0,3.02,14.93,12.18,27.04.77,1.01,1.57,2.02,2.39,3.02.81,1,1.66,1.98,2.52,2.95.86.97,1.75,1.93,2.66,2.86.45.48.92.94,1.38,1.39,4.16,4.13,8.72,7.89,13.5,11.05-.76-1.42-1.51-2.83-2.26-4.22-2.26-4.24-4.4-8.46-6.2-12.98-2.51-6.3-4.4-12.87-5.53-19.58-.2-1.12-.36-2.25-.51-3.37-.74-5.51-.97-11.08-.64-16.62.12-1.93.28-3.85.53-5.77.16-1.28.36-2.54.6-3.8.36-1.9.81-3.77,1.37-5.63,2.25-7.44,6.28-14.1,9.75-20.99.81,4.69,1.51,9.41,2.13,14.14.62,4.74,1.14,9.5,1.61,14.26.27,2.76.5,5.53.72,8.29.33,4.16.61,8.32.84,12.46.24,4.16.44,8.32.6,12.46.07,1.71.13,3.43.19,5.14.12,3.14.21,6.26.29,9.38,0,0,.01.72.01,1.89.01.17.01.35.01.53.01.5.01,1.06.03,1.67.01.37.01.77.01,1.18,0,.2.01.41.01.62,0,.49.01,1,.03,1.51.01.35.01.69.01,1.04.03,1.95.05,4.03.09,5.99.01.36.01.72.01,1.06,0,.52.01,1.02.03,1.53.03,1.59.04,3.02.07,4.12.01.36.01.68.01.96,0,.43.01.76.01,1,.01.23.01.35.01.36.03,1.18.04,2.38.05,3.56.05,4.32.05,8.58-.36,12.82ZM917.05,692.18c1.04,1.9,1.66,3.19,1.42,5.38-.21,1.94-1.21,3.72-2.51,5.17-1.04,1.14-2.25,2.07-3.48,2.98-1.09.81-1.89,1.97-2.83,2.96-2.22,2.35-4.52,4.62-6.9,6.83-.2.2-.41.39-.69.45-.25.07-.53,0-.78-.08-1.77-.58-3.12-1.97-4.38-3.32-3.83-4.07-7.56-8.22-11.19-12.47-.68-.8-1.38-1.65-1.62-2.67-.28-1.25.17-2.52.54-3.75.36-1.14.65-2.3.88-3.45.36-1.74.58-3.49.72-5.27.4-4.65.19-9.39.05-14l-.39-13.63c5.78,1.82,10.1,5.42,13.99,9.92,3.85-4.92,8.36-7.47,13.99-9.9l-.31,14.23c-.11,4.34-.05,8.94.86,13.3.37,1.79.89,3.53,1.59,5.22.31.72.65,1.42,1.02,2.11ZM918.39,687.23c.15.52.32,1,.49,1.45-.19-.44-.35-.93-.49-1.45ZM1011.37,524.53v56.6c0,53.83-41.12,98.23-93.6,103.45-.03-.13-.04-.27-.07-.4-.04-.21-.08-.43-.11-.65-.07-.44-.13-.89-.19-1.34-.12-.89-.21-1.79-.29-2.7-.03-.32-.05-.64-.07-.93-.07-.85-.11-1.69-.15-2.48-.01-.23-.03-.44-.03-.64-.01-.24-.01-.46-.03-.7-.01-.54-.04-1.06-.04-1.55-.04-1.82-.03-3.24-.01-3.89l.47-21.99,2.29-43.6c.16-2.23.33-4.46.51-6.68.17-2.22.36-4.45.56-6.67.66-7.39,1.5-14.73,2.79-22.11l.05.19c.74,2.29,2.07,4.54,3.24,6.72.17.32.33.62.49.93.65,1.29,1.29,2.56,1.91,3.85.62,1.29,1.22,2.59,1.81,3.89.39.88.76,1.75,1.12,2.63.47,1.18.9,2.38,1.32,3.59,3.39,10.08,2.84,20.45,1.24,30.8-.33,2.15-.72,4.3-1.16,6.43-1.32,6.38-3.12,12.63-5.51,18.68h0c-.52,1.36-1.08,2.7-1.67,4.01h0c-.29.68-.58,1.34-.9,1.99-.31.66-.61,1.3-.94,1.95l-3.99,7.9c2.55-1.67,4.93-3.6,7.23-5.62.76-.68,1.53-1.36,2.27-2.05,1.06-.97,2.1-1.95,3.14-2.95.5-.49,1.02-1,1.53-1.51.49-.5,1-1.01,1.49-1.53.98-1.04,1.94-2.1,2.87-3.19.8-.94,1.58-1.91,2.34-2.92.05-.07.11-.15.17-.21.03-.04.05-.08.08-.11.03-.04.05-.08.08-.12.57-.76,1.12-1.53,1.65-2.27.52-.76,1.02-1.5,1.51-2.25.29-.44.57-.89.85-1.33.82-1.32,1.59-2.62,2.3-3.88.07-.13.13-.25.21-.37.31-.57.6-1.13.89-1.67.07-.13.13-.27.2-.4.32-.61.61-1.21.89-1.79.48-.98.92-1.94,1.33-2.87,1.29-2.95,2.22-5.61,2.88-7.81.19-.62.35-1.21.51-1.75.37-1.38.62-2.54.8-3.41.21-1.05.31-1.71.33-1.93.36-2.56.62-5.17.73-7.75.08-1.78-.07-3.6-.17-5.38-.17-2.98-.56-5.9-1.09-8.78-.16-.89-.35-1.77-.53-2.64-.07-.25-.12-.49-.17-.74-.36-1.58-.78-3.15-1.22-4.72-.45-1.57-.94-3.12-1.46-4.68-.37-1.06-.74-2.14-1.12-3.2-.21-.54-.41-1.08-.61-1.62-.28-.74-.56-1.47-.85-2.22-.65-1.66-1.29-3.33-1.91-5.01-.62-1.69-1.22-3.37-1.75-5.09-.12-.37-.24-.76-.35-1.13-.45-1.53-.84-3.07-1.14-4.62l.28-.33c.68-.85,1.21-1.71,1.62-2.58.16-.35.29-.69.42-1.04.31-.89.52-1.81.62-2.74.05-.35.08-.69.11-1.05.07-1.26,0-2.59-.12-3.97-.04-.33-.07-.66-.11-1h.01c1.3.58,2.62,1.09,3.95,1.51,1.09.35,2.17.65,3.27.92,5.87,1.38,11.96,1.57,18.04,1.14,4.61-.32,9.29-1.01,13.68-2.47l3.56-1.14c.41-.2.84-.4,1.25-.61.62-.31,1.25-.61,1.87-.92.69-.35,1.37-.7,2.05-1.06,1.02-.54,2.02-1.1,3.02-1.71,1.36-.82,2.68-1.7,3.97-2.62,1.29-.92,2.54-1.87,3.76-2.87h.01c1.22-1.01,2.42-2.03,3.57-3.1.76-.7,1.5-1.41,2.23-2.13h0c.4-.4.8-.78,1.18-1.18-.39.4-.78.8-1.18,1.18ZM1011.37,519.44c-2.71,2.96-5.63,5.69-8.76,8.26-4.56,3.68-9.59,6.63-15,8.85-3.53-9.19-7.16-18.41-11.6-27.21l-5.21-9.88-1.2-2.13c-.12-.21-.46-.68-.5-.88-.12-.64.65-2.6.84-3.27.4-1.49.76-3.03.98-4.56.88-6.06.7-12.22.72-18.33,5.73,4.69,11.04,9.88,16.22,15.15,8.33,8.5,16.41,17.62,23.5,27.23.9,1.22,1.79,2.46,2.66,3.69-.86,1.05-1.74,2.07-2.66,3.07ZM1022.03,502.45c-1.45,3.6-3.26,6.95-5.34,10.19-.39.6-.78,1.2-1.18,1.78-1.32-1.95-2.7-3.87-4.13-5.74-2.1-2.76-4.3-5.45-6.52-8.1-6.64-7.98-13.78-15.6-21.24-22.81l-11.52-10.6c-.07-.08-.43-.39-.47-.49-.07-.19.01-.82.01-1.04v-22.2s.33-.25.33-.25c13.31-.12,26.64,1,39.4,4.88.77.24,1.53.48,2.29.73,1.02.35,2.03.69,3.03,1.06,6.04,2.25,11.76,5.06,17.44,8.16l-12.1,44.44ZM1034.93,455.7l-12.09-6.08c-2.03-.82-4.08-1.65-6.15-2.39-1.75-.65-3.52-1.25-5.31-1.78-.49-.15-.98-.29-1.47-.43-12.59-3.48-25.28-4.24-38.29-4.4l-.81-11.53c1.32-1,2.88-1.74,4.34-2.5,8.18-4.26,17.43-6.54,26.64-6.9,2.13-.08,4.25-.04,6.36.12,1.89.15,3.76.37,5.63.69,12.25,2.05,24.07,7.63,34.14,14.51-5.77,6.04-9.64,13.1-12.99,20.69ZM1057.53,427.71c-2.75,1.7-5.25,3.6-7.72,5.66-4.42-3.33-9.41-6.14-14.4-8.49l-11.36-4.46c-3.63-1.12-7.25-1.94-10.89-2.46-1.89-.28-3.77-.48-5.66-.57-9.68-.6-19.33.96-28.71,4.78-2.96,1.21-5.78,2.71-8.61,4.21-2.52-10.31-7.75-19.98-14.88-27.85-4.03-4.42-8.57-8.2-13.42-11.69,1.86-1.01,3.99-1.78,5.97-2.52,7.12-2.68,14.64-4.32,22.24-4.81,6.14-.45,12.83.07,18.9,1.67,1,.25,1.98.54,2.94.86,2.09.69,4.11,1.53,6.07,2.44,5.7,2.67,10.99,6.12,16.39,9.43l29.48,17.82,13.46,8.14c2.21,1.3,4.38,2.83,6.71,3.89l.27.13-6.78,3.8Z"/>
  <g>
    <path class="cls-2" d="M391.49,607.76h-12.35v-2.53h27.65v2.53h-12.4v32.89h-2.89v-32.89Z"/>
    <path class="cls-2" d="M415.13,624.1v16.54h-2.89v-35.41h13.2c7.25,0,11.09,3.74,11.09,9.31,0,4.5-2.79,7.43-6.89,8.3,3.78.86,6.31,3.24,6.31,9.26v1.36c0,2.48-.21,5.82.47,7.18h-2.89c-.68-1.52-.53-4.35-.53-7.38v-.91c0-5.82-1.79-8.25-8.83-8.25h-9.04ZM415.13,621.57h8.89c6.46,0,9.46-2.33,9.46-6.98,0-4.35-2.94-6.83-8.68-6.83h-9.67v13.81Z"/>
    <path class="cls-2" d="M449.72,628.4l-4.67,12.25h-2.89l13.51-35.41h3.36l14.09,35.41h-3.1l-4.78-12.25h-15.51ZM464.28,625.87c-4.1-10.52-6.21-15.59-6.94-17.96h-.05c-.89,2.69-3.26,8.96-6.57,17.96h13.56Z"/>
    <path class="cls-2" d="M479.62,605.23h12.19c10.09,0,17.08,6.78,17.08,17.41s-6.84,18.01-17.13,18.01h-12.14v-35.41h0ZM482.45,638.11h8.89c9.72,0,14.51-6.58,14.51-15.33,0-7.79-4.31-15.03-14.51-15.03h-8.89v30.36Z"/>
    <path class="cls-2" d="M519.83,605.23v35.41h-2.83v-35.41h2.83Z"/>
    <path class="cls-2" d="M538.01,607.76h-12.35v-2.53h27.65v2.53h-12.4v32.89h-2.89v-32.89Z"/>
    <path class="cls-2" d="M561.61,605.23v35.41h-2.83v-35.41h2.83Z"/>
    <path class="cls-2" d="M602.82,622.68c0,9.67-5.36,18.46-16.71,18.46-10.35,0-16.39-8.05-16.39-18.21s5.83-18.21,16.77-18.21c10.09,0,16.35,7.64,16.35,17.96h0ZM572.75,622.79c0,8.14,4.67,15.83,13.51,15.83,9.51,0,13.51-7.49,13.51-15.88s-4.52-15.48-13.41-15.48c-9.46,0-13.62,7.54-13.62,15.53Z"/>
    <path class="cls-2" d="M610.9,640.65v-35.41h4.2c5.73,8.5,19.18,28.28,21.5,32.13h.06c-.32-5.11-.26-10.32-.26-16.08v-16.04h2.89v35.41h-3.89c-5.47-8.2-19.13-28.78-21.76-32.69h-.05c.26,4.65.21,9.81.21,16.24v16.44h-2.91Z"/>
    <path class="cls-2" d="M653.53,628.4l-4.67,12.25h-2.89l13.51-35.41h3.36l14.09,35.41h-3.1l-4.78-12.25h-15.51ZM668.08,625.87c-4.1-10.52-6.21-15.59-6.94-17.96h-.05c-.89,2.69-3.26,8.96-6.57,17.96h13.56Z"/>
    <path class="cls-2" d="M683.44,605.23h2.83v32.89h19.77l-.53,2.53h-22.07v-35.41h0Z"/>
  </g>
  <g>
    <path class="cls-2" d="M1105.86,607.81h-12.35v-2.53h27.65v2.53h-12.4v32.89h-2.89v-32.89Z"/>
    <path class="cls-2" d="M1126.62,605.28h2.83v15.43h22.07v-15.43h2.83v35.41h-2.83v-17.46h-22.07v17.46h-2.83v-35.41Z"/>
    <path class="cls-2" d="M1168.61,628.45l-4.67,12.25h-2.89l13.51-35.41h3.36l14.09,35.41h-3.1l-4.78-12.25h-15.51ZM1183.16,625.92c-4.1-10.52-6.21-15.59-6.94-17.96h-.05c-.89,2.69-3.26,8.96-6.57,17.96h13.56Z"/>
    <path class="cls-2" d="M1201.36,605.28v35.41h-2.83v-35.41h2.83Z"/>
    <path class="cls-2" d="M1225.59,631.18c1.1,4.71,4.37,7.49,10.41,7.49,6.73,0,9.3-3.24,9.3-7.09s-1.84-6.47-9.93-8.4c-7.78-1.87-11.15-4.3-11.15-9.41,0-4.65,3.52-9.01,11.4-9.01s11.51,4.76,11.98,9.05h-2.94c-.84-3.8-3.42-6.52-9.19-6.52-5.31,0-8.2,2.38-8.2,6.32s2.41,5.41,9.19,7.03c10.35,2.47,11.87,6.47,11.87,10.72,0,5.21-3.95,9.72-12.46,9.72-9.19,0-12.56-5.16-13.24-9.92h2.95Z"/>
    <path class="cls-2" d="M1256.39,605.28h13.14c6.73,0,11.36,3.6,11.36,9.87s-4.57,10.12-11.72,10.12h-9.88v15.43h-2.89v-35.41h0ZM1259.28,622.73h10.14c5.94,0,8.41-3.04,8.41-7.49,0-4.76-3.26-7.43-8.2-7.43h-10.35v14.92Z"/>
    <path class="cls-2" d="M1288.39,628.45l-4.67,12.25h-2.89l13.51-35.41h3.36l14.08,35.41h-3.1l-4.78-12.25h-15.51ZM1302.94,625.92c-4.1-10.52-6.2-15.59-6.94-17.96h-.05c-.89,2.69-3.25,8.96-6.57,17.96h13.56Z"/>
  </g>
</svg>