<?xml version="1.0" encoding="UTF-8"?>
<svg id="_Слой_1" data-name="Слой 1" xmlns="http://www.w3.org/2000/svg" version="1.1" viewBox="0 0 1920 1080">
  <defs>
    <style>
      .cls-1 {
        fill: #0d1d2d;
        stroke-width: 0px;
      }
    </style>
  </defs>
  <g>
    <g>
      <path class="cls-1" d="M250.32,590.48l-.77.25h43.05l-.77-.25c-7.2-2.34-8.49-2.77-8.77-7.69v-.75s.08-.22.08-.22v-.03c-.06-1.2-.08-21.65-.08-33.73,0-11.54.02-69.17.08-70.29v-.03s-.08-.22-.08-.22v-.75c.28-4.93,1.57-5.36,8.77-7.7l.77-.25h-43.05l.77.25c7.44,2.42,8.65,3.25,8.81,9.31v69.67s0,33.1,0,33.1c-.15,5.61-.76,6.7-8.81,9.32Z"/>
      <path class="cls-1" d="M381.32,576.36l.21.54c.74,1.89,1.5,3.85,1.5,5.96,0,.13-.03.3-.06.48-.04.23-.09.5-.09.75-.32,2.05-3,4.46-5.99,5.35l-.06.02-.57,1.33h40.07v-1.51h-.75c-1.48,0-2.45-.93-3.15-3.03-1.1-3.63-35.56-89.18-45.52-113.02-.66-1.48-3.01-4.13-4.17-4.13h-39.2l.31.23c.2.15,1.92,1.43,2.57,1.43,4.52,0,8.72,1.81,12.48,5.37l-30.67,103.55c-2.18,4.35-6.75,8.51-11.94,10.85l-.55.25h27.74l-4.33-1.81c-1.69-.77-3.09-1.86-4.16-3.23-1.09-1.56-1.69-3.41-1.69-5.23,0-.76.16-1.54.31-2.3l16.96-57.27h28.03l22.72,55.41ZM357.87,518.98h-26.76l11.38-38.44,15.38,38.44Z"/>
      <path class="cls-1" d="M479.73,471.14c-8.55,4.14-15.91,12.39-21.88,24.53l-.47.94c-1.26,2.52-2.27,4.71-3.34,7.21v-25.24c0-6.23,1.26-7.08,9.11-9.54l.8-.25h-44.71l1.09.34c7.3,2.28,8.82,2.76,8.82,7.89v105.37c0,4.95-1.49,5.45-8.67,7.84l-1.19.4h44.61l-.76-.25c-7.85-2.62-9.11-3.49-9.11-9.7v-68.72c1.53-5.78,3.62-10.9,6.22-15.23,2.52-4.49,6.11-9.97,11.48-12.57,2.23-1.11,4.52-1.7,6.65-1.7,1.26,0,2.49.16,3.55.46,3.7.94,6.78,3.78,8.9,8.21,1.94,4.05,3.01,9.34,3.01,14.89v79.31c-.89,2.36-2.93,3.14-8.64,5.04l-.76.25h44.63l-.77-.25c-6.26-2.03-8.2-3.11-8.95-6.27v-73.24c1.56-5.53,3.49-10.16,5.91-14.14,3.61-6.41,7.41-10.53,11.64-12.58,2.03-1.1,4.34-1.7,6.48-1.7,1.26,0,2.49.16,3.55.46,3.7.94,6.78,3.78,8.9,8.21,1.94,4.05,3.01,9.34,3.01,14.89v76.06c0,5.25-1.74,5.99-9.11,8.29l-.81.25h45.49l-.81-.25c-7.37-2.3-9.11-3.04-9.11-8.29v-81.83c0-1-.29-2.08-.57-3.12-.07-.27-.15-.54-.21-.8-1.17-6.7-3.72-12.71-7.35-17.36-5.18-6.28-13.28-10.18-21.14-10.18-3.54,0-7.11.81-10.34,2.35-8.55,4.14-15.91,12.39-21.88,24.53l-.47.94c-.41.87-.83,1.71-1.27,2.59-.63,1.26-1.28,2.55-1.9,3.96,0-.19.01-.37.02-.55.04-.8.07-1.55-.04-2.38-.08-.63-.2-1.31-.31-1.96-.11-.65-.23-1.32-.31-1.94-1.17-6.7-3.71-12.7-7.35-17.36-5.26-6.37-13.22-10.18-21.3-10.18-3.54,0-7.11.81-10.34,2.35Z"/>
      <path class="cls-1" d="M145.63,578.16c7.09,8.23,22.78,13.9,39.97,14.46,2.15.05,3.94.08,5.58.08.58,0,1.14,0,1.7,0h.08c.34,0,.68-.01,1.03-.02h.4c4.64-.08,8.68-.36,12.38-.86,12.43-1.72,22.05-6.03,28.6-12.79,5.73-5.92,8.76-13.49,8.76-21.86,0-14.52-18.45-25.01-34.73-34.26-1.08-.62-2.16-1.23-3.22-1.83-.89-.51-1.81-1.03-2.73-1.56-15.58-8.87-34.98-19.9-34.73-33.31,0-3.31,1.99-7.7,5.07-11.19,3.47-3.94,7.81-6.21,11.89-6.23.05,0,.1,0,.15,0,7.63,0,14.65,3.07,20.32,8.89,5.27,5.41,8.83,12.69,10.03,20.49.57,3.68-.04,6.95-.68,10.42-.06.34-.13.69-.19,1.03l-.03.18.18-.03c10.94-1.7,18.56-6.33,23.3-14.15,1.5-2.48,1.91-3.95.59-6.66-1.09-2.24-2.22-4.56-4.03-6.66-7.09-8.23-22.78-13.9-39.97-14.46-5.09-.12-10.12-.19-15.74.36-5.07.52-9.89,1.57-14.73,3.2-14.54,4.96-21.61,14.04-21.61,27.76,0,17.19,24.81,31.04,42.93,41.15,2.26,1.26,4.4,2.46,6.36,3.59,17.15,9.92,25.85,19.53,25.85,28.56s-10.26,18.32-20.7,19.24c-.84,0-1.66,0-2.45,0-.94.02-1.91-.04-2.88-.14h-.16c-.16-.03-.32-.05-.49-.08l-.23-.03c-.37-.05-.74-.11-1.1-.17-.29-.05-.57-.1-.85-.16-.07-.01-.14-.03-.21-.05l-.14-.03c-6.26-1.39-11.92-5-16.37-10.44-4.18-5.1-7.05-11.6-8.07-18.3-.57-3.69.04-6.97.68-10.43l.22-1.19-.18.03c-10.94,1.7-18.57,6.33-23.3,14.15-1.5,2.48-1.91,3.95-.59,6.66,1.09,2.24,2.22,4.56,4.03,6.66Z"/>
    </g>
    <g>
      <path class="cls-1" d="M1412.94,529.94c0-10.82-2.81-21.51-8.12-30.93-11.13-19.56-32.08-31.71-54.66-31.71-10.72,0-21.36,2.81-30.77,8.12-19.56,11.13-31.71,32.02-31.71,54.51,0,10.75,2.86,21.45,8.28,30.92,5.58,9.81,13.67,17.93,23.39,23.47,9.45,5.39,20.21,8.24,31.12,8.24s21.36-2.81,30.92-8.12c19.46-11.08,31.55-31.96,31.55-54.51ZM1392.11,557.53c0,11.34-4.24,19.76-12.25,24.36-3.46,1.95-7.21,2.94-11.16,2.94-7.54,0-15.88-3.74-24.13-10.8-7.96-6.82-15.64-16.54-22.2-28.1-8.94-15.8-13.86-31.27-13.86-43.58,0-11.34,4.24-19.76,12.25-24.36,3.46-1.95,7.21-2.95,11.16-2.95,7.6,0,15.97,3.74,24.19,10.82,7.91,6.81,15.57,16.58,22.14,28.24,8.94,15.8,13.86,31.22,13.86,43.42Z"/>
      <path class="cls-1" d="M1494.19,584.32c-.32,2.05-3,4.46-5.99,5.35l-.06.02-.57,1.33h40.07v-1.51h-.75c-1.48,0-2.45-.93-3.15-3.03-1.1-3.63-35.56-89.19-45.52-113.02-.66-1.48-3.01-4.13-4.17-4.13h-39.2l.31.23c.2.15,1.92,1.43,2.57,1.43,4.52,0,8.72,1.81,12.48,5.37l-30.67,103.55c-2.18,4.35-6.75,8.51-11.94,10.85l-.55.25h27.74l-4.33-1.81c-1.69-.77-3.09-1.85-4.16-3.23-1.09-1.56-1.69-3.41-1.69-5.23,0-.76.16-1.54.31-2.3l16.96-57.27h28.03l22.72,55.41.21.54c.74,1.9,1.5,3.85,1.5,5.96,0,.13-.03.3-.06.48-.04.23-.09.5-.09.75ZM1469.19,519.21h-26.76l11.38-38.44,15.38,38.44Z"/>
      <path class="cls-1" d="M1691.11,469.31l.77-.25h-43.05l.77.25c7.44,2.42,8.65,3.25,8.81,9.31v69.67s0,33.1,0,33.1c-.15,5.61-.76,6.7-8.81,9.32l-.77.25h43.05l-.77-.25c-7.2-2.34-8.49-2.77-8.77-7.69v-.75s.08-.22.08-.22v-.03c-.06-1.2-.08-21.65-.08-33.73,0-11.54.02-69.17.08-70.29v-.03s-.08-.22-.08-.22v-.75c.28-4.93,1.57-5.36,8.77-7.7Z"/>
      <path class="cls-1" d="M1540.93,577.96c7.09,8.23,22.78,13.9,39.97,14.46,2.14.05,3.93.08,5.56.08.59,0,1.16,0,1.72-.01h.08c.33,0,.66-.01.99-.02h.44c4.64-.08,8.68-.36,12.38-.86,12.43-1.73,22.05-6.03,28.6-12.79,5.73-5.92,8.76-13.49,8.76-21.86,0-14.52-18.45-25-34.73-34.25-1.09-.62-2.16-1.23-3.22-1.84-.89-.51-1.8-1.03-2.73-1.56-15.59-8.87-34.98-19.9-34.73-33.32,0-3.31,1.99-7.7,5.07-11.19,3.47-3.94,7.81-6.21,11.89-6.23.05,0,.1,0,.15,0,7.63,0,14.65,3.07,20.32,8.89,5.27,5.41,8.83,12.69,10.03,20.49.57,3.68-.04,6.95-.68,10.42-.06.34-.13.69-.19,1.03l-.03.18.18-.03c10.94-1.7,18.56-6.33,23.3-14.15,1.5-2.48,1.91-3.95.59-6.66-1.09-2.24-2.22-4.56-4.03-6.66-7.09-8.23-22.78-13.9-39.97-14.46-5.09-.12-10.12-.19-15.74.36-5.07.52-9.89,1.57-14.73,3.2-14.54,4.96-21.61,14.04-21.61,27.76,0,17.19,24.81,31.04,42.93,41.15,2.26,1.26,4.4,2.46,6.36,3.59,17.15,9.92,25.85,19.53,25.85,28.56s-10.26,18.32-20.7,19.24c-.84,0-1.66,0-2.45,0-.95,0-1.92-.04-2.88-.14-.03,0-.06,0-.08,0h-.07c-.17-.02-.33-.05-.5-.07l-.22-.03c-.37-.05-.74-.1-1.1-.17-.29-.05-.57-.1-.85-.16-.07-.01-.15-.03-.22-.05l-.13-.03c-6.26-1.39-11.92-5-16.37-10.44-4.18-5.1-7.05-11.6-8.07-18.3-.57-3.69.04-6.97.68-10.44l.22-1.19-.18.03c-10.94,1.7-18.57,6.33-23.3,14.15-1.5,2.48-1.91,3.95-.59,6.66,1.09,2.24,2.22,4.56,4.03,6.67Z"/>
      <path class="cls-1" d="M1775.01,523.3c-1.08-.62-2.16-1.23-3.22-1.83-.89-.51-1.81-1.03-2.73-1.56-15.58-8.87-34.98-19.9-34.73-33.31,0-3.31,1.99-7.7,5.07-11.19,3.47-3.94,7.81-6.21,11.89-6.23.05,0,.1,0,.15,0,7.63,0,14.65,3.07,20.32,8.89,5.27,5.41,8.83,12.69,10.03,20.49.57,3.69-.04,6.96-.68,10.43l-.22,1.2.18-.03c10.94-1.7,18.56-6.33,23.3-14.15,1.5-2.48,1.91-3.95.59-6.66-1.09-2.24-2.22-4.56-4.03-6.66-7.09-8.23-22.78-13.9-39.97-14.46-5.09-.12-10.12-.19-15.74.36-5.07.52-9.89,1.57-14.73,3.2-14.54,4.96-21.61,14.04-21.61,27.76,0,17.19,24.81,31.04,42.93,41.15,2.26,1.26,4.4,2.46,6.36,3.59,17.15,9.92,25.85,19.53,25.85,28.56s-10.26,18.32-20.7,19.24c-.84,0-1.66,0-2.45,0h-.14c-.91,0-1.83-.05-2.75-.14-.03,0-.06,0-.08,0h-.07c-.17-.02-.34-.05-.51-.07l-.21-.03c-.37-.05-.74-.1-1.1-.17-.29-.05-.57-.1-.85-.16-.07-.01-.15-.03-.22-.05l-.14-.03c-6.26-1.39-11.92-5-16.37-10.44-4.18-5.1-7.05-11.6-8.07-18.3-.57-3.69.04-6.96.68-10.42.06-.34.13-.68.19-1.03l.03-.18-.18.03c-10.94,1.7-18.57,6.33-23.3,14.15-1.5,2.48-1.91,3.95-.59,6.66,1.09,2.24,2.22,4.56,4.03,6.67,7.09,8.23,22.78,13.9,39.97,14.46,2.14.05,3.93.08,5.56.08.59,0,1.16,0,1.72-.01h.08c.33,0,.66-.01.99-.02h.44c4.64-.08,8.68-.36,12.38-.86,12.43-1.73,22.05-6.03,28.6-12.79,5.73-5.92,8.76-13.49,8.76-21.86,0-14.52-18.45-25-34.73-34.25Z"/>
    </g>
  </g>
  <path class="cls-1" d="M1285.99,334.32l-57.22-34.56-15.16-9.17-25.12-15.16c-1.01-.6-2-1.2-3.01-1.83-4-2.46-7.99-5.01-12.01-7.44-2.03-1.2-4.05-2.38-6.1-3.53-1.01-.55-2.05-1.09-3.09-1.64-.85-.44-1.7-.88-2.55-1.29-1.94-.96-3.91-1.83-5.91-2.65-1.48-.6-3.01-1.2-4.52-1.75-1.04-.38-2.08-.74-3.12-1.09-.74-.27-1.48-.52-2.24-.74.77.22,1.51.47,2.24.71-41.16-53.88-106.04-88.69-178.92-88.69h-31.99c-72.82,0-137.65,34.75-178.81,88.56-19.38,6.81-36.31,18.88-53.83,29.55l-67.95,41.35c-7.74,4.68-15.43,9.63-23.26,14.28-2.35,1.4-4.71,2.76-7.09,4.08-2.38,1.34-4.76,2.63-7.2,3.83.58.19,1.12.41,1.7.63.85.27,1.67.6,2.49.93.03,0,.03.03.03.03,1.4.55,2.76,1.09,4.13,1.72,1.37.6,2.74,1.23,4.05,1.89,4.05,2.03,7.96,4.27,11.77,6.7,2.52,1.61,4.98,3.31,7.42,5.06,1.61,1.18,3.23,2.35,4.79,3.58,1.56,1.2,3.09,2.46,4.6,3.75,1.48,1.29,2.93,2.63,4.35,4.02.63.6,1.23,1.23,1.81,1.83.6.6,1.2,1.23,1.78,1.92.08.11.16.22.27.3.08.08.16.19.27.3.27.33.55.66.82.99.27.3.55.63.82.96,1.64,2,3.17,4.02,4.6,6.1.63.93,1.26,1.86,1.86,2.82,2.46,3.8,4.65,7.74,6.65,11.85,2.96,5.99,5.56,12.18,7.83,18.44.77,2.11,1.51,4.21,2.22,6.32,3.61,10.89,6.46,22.03,8.95,33.19,2.11,9.47,3.89,19.1,6.16,28.6.93,3.8,1.92,7.58,3.01,11.3.58,1.86,1.15,3.72,1.78,5.56.77,2.27,1.61,4.52,2.49,6.7.44,1.09.9,2.19,1.37,3.26.96,2.13,1.97,4.24,3.01,6.29,1.07,2.05,2.19,4.08,3.37,6.05,1.78,2.96,3.67,5.83,5.69,8.65.68.93,1.37,1.86,2.08,2.76.27.38.58.77.9,1.12v129.03c0,117.23,90.12,213.84,204.7,224.15-.16.77-.33,1.56-.49,2.35-.88,3.78-1.97,7.55-3.39,11.33-.66,1.75-1.37,3.58-1.01,5.39.03.22.11.44.16.66.16.41.36.82.57,1.2.44.71.99,1.4,1.56,2.03.19.22.41.41.6.63,11.36,12.01,22.74,24,34.1,35.99.85.88,1.67,1.75,2.52,2.6.85.88,1.7,1.7,2.6,2.46l.03.03c1.72,1.48,3.97,2.87,6.08,2.63.47-.03.9-.16,1.34-.36,1.45-.71,2.33-2.19,3.15-3.58,2-3.42,4.27-6.68,6.73-9.77,1.86-2.33,3.83-4.54,5.94-6.65.68-.71,1.4-1.4,2.11-2.08,6.35-5.99,13.66-11.06,18.99-17.98,1.18-1.53,2.27-3.2,2.98-5.01.22-.6.41-1.2.55-1.83.08-.41.16-.82.22-1.23.19-2-.11-3.91-.74-5.83-1.45-4.43-4.73-8.65-7.25-12.75-.14-.22-.25-.41-.36-.66,112.58-12.26,200.45-107.93,200.45-223.71v-128.26c1.23-1.48,2.41-2.98,3.53-4.54,1.67-2.33,3.26-4.76,4.76-7.22.74-1.26,1.45-2.54,2.16-3.83,1.4-2.54,2.71-5.17,3.94-7.8,1.81-3.97,3.45-8.02,4.87-12.1,5.45-15.49,7.94-32.32,11.52-48.33.3-1.37.63-2.74.96-4.1,1.01-4.1,2.13-8.18,3.37-12.23,1.61-5.42,3.42-10.78,5.28-16.06,4.79-13.63,10.84-27.91,19.38-39.63,2-2.74,4.16-5.34,6.46-7.85,3.37-3.61,7.06-7.01,10.95-10.15,1.56-1.26,3.15-2.46,4.76-3.64.79-.57,1.61-1.15,2.44-1.72h.03c1.89-1.31,3.8-2.54,5.72-3.72,1.94-1.2,3.91-2.35,5.91-3.42,1.97-1.09,3.97-2.11,5.99-3.09l7.12-3.26c.33-.14.66-.27,1.01-.41.33-.14.68-.25,1.01-.41.71-.27,1.37-.6,1.94-1.01l-21.43-12.67ZM937.27,176.42h31.99c64.09,0,121.72,28.32,160.99,73.09,1.12.19,2.27.41,3.39.68-1.12-.25-2.24-.47-3.37-.66-.36-.05-.71-.14-1.04-.19-1.34-.25-2.68-.47-4.02-.66-1.7-.25-3.39-.47-5.09-.63-3.12-.33-6.24-.52-9.36-.63-10.51-.36-21.07.47-31.44,2.35-2.93.55-5.86,1.18-8.78,1.86-3.31.79-6.57,1.67-9.8,2.63-3.23.96-6.43,2-9.61,3.15-3.17,1.15-6.29,2.35-9.41,3.64h-.03c-3.12,1.31-6.18,2.68-9.25,4.13,0,0-.03,0-.03-.03-9.85-6.4-21.43-10.97-32.62-14.48l-11.08-2.98c-.41-.11-.9-.19-1.48-.3-1.12-.19-2.44-.41-3.5-.74-.55-.16-1.01-.36-1.34-.57-.19-.11-.38-.3-.57-.52-.3-.36-.63-.77-.9-1.15-.19-.27-.38-.55-.55-.77-.08-.14-.16-.25-.22-.33l-4.95-6.73-21.29-29.36c-3.2,3.8-5.94,8.05-8.84,12.12l-10.84,14.86v.03l-7.2,9.85c-.08.08-.19.25-.3.38-.11.16-.25.36-.38.55-.11.11-.19.25-.27.36-.19.25-.38.49-.57.68-.16.19-.33.33-.47.38-.16.08-.36.14-.55.22-.41.14-.85.25-1.31.33-1.2.25-2.52.41-3.45.66l-13.41,3.89c-11.6,3.78-21.81,8.84-32.67,14.26l-.36-.22c-2.46-1.53-5.17-2.79-7.94-3.97-2.76-1.18-5.56-2.22-8.26-3.28-25.61-10.02-53.64-13.77-80.76-8.89,39.27-44.72,96.87-73.01,160.94-73.01ZM1075.87,529.63c7.47-8.7,13.08-17.24,17.87-27.69,8.21,12.83,14.59,27.31,20.74,41.24,5.36,12.23,10.65,24.27,15.02,36.92-6.84,2.08-13.71,3.42-20.82,4.16-9.33,1.12-18.94,1.15-28.27.19,5.58-18.12,2.68-37.63-4.54-54.81ZM1033.76,704.14c-1.59-10.97-5.09-21.4-9.63-31.5l-8.1-16.83-6.49-12.56c-1.12-2.19-2.74-4.79-3.12-7.22-.47-3.15.49-6.68,1.26-9.69,1.61-6.29,3.67-12.83,7.53-18.12,3.04-4.1,7.28-6.08,12.23-6.87l.36-.03c2.76-.08,5.66,1.12,7.72,2.96,3.15,2.85,2.98,7.14,3.83,11.03l2.41,9.52c4.84,15.74,12.2,30.51,16.36,46.52,2.52,9.8,4.41,19.65,5.01,29.77.9,15.49-.88,31.31-5.69,46.11-4.87,15-13,29.04-22.47,41.6-4.43,5.88-9.41,11.36-14.31,16.86l-4.16,4.52c7.25-17.19,12.04-35.71,15.11-54.07,2.9-17.19,4.71-34.64,2.16-51.99ZM1036.25,597.91c-4.84-2.33-10.51-2.3-15.52-.49-8.18,2.96-11.55,9.5-15.05,16.83-.63-7.58-.33-14.67,4.05-21.18,1.07-1.56,3.07-3.15,3.78-4.84.44-1.07.08-1.34-.41-2.3-.98-.49-1.15-.77-2.24-.47-4.08,1.12-7.42,7.47-9.36,10.86-1.56-3.06-3.04-6.27-4.9-9.14-4.87-7.58-12.01-14.45-20.14-18.44-11.88-5.91-25.15-7.44-37.82-3.12-15.79,5.36-24.87,16.09-32.05,30.7-1.61-3.39-4.24-9.03-8.18-10.21-.93-.27-1.4-.16-2.24.25-.47.66-.66,1.07-.68,1.86-.05,1.72,3.48,4.98,4.35,6.76,1.53,3.09,2.9,7.01,3.26,10.45.3,2.79-.19,5.77-.47,8.57l-3.12-6.35c-3.15-5.25-8.21-9.44-14.23-10.89-8.67-2.05-14.67,1.18-21.76,5.64l-.63-1.45-.38-.96c-1.86-5.06-.11-11.88,1.23-16.88,2.52-9.5,5.94-18.72,10.13-27.61l11.03-21.84c5.69-11.82,10.51-23.94,12.83-36.92,2.71-15.16,1.72-30.54.82-45.81-.57-9.71-.85-19.81-4.19-29.06-4.41-12.29-13.6-22.63-24.55-29.56-3.23-2.05-6.76-3.64-10.21-5.28l2.63.33c15.13,2.27,30.1,10.26,39.22,22.74,7.14,9.8,10.59,21.04,12.89,32.78,4.35,22.19,4.13,46.38-.9,68.41-1.2,5.39-2.71,10.67-4.52,15.9-1.34,3.94-3.78,8.76-4.27,12.81-.11.82.27.96.77,1.59.77.36,1.23.6,2.11.49.96-.14,1.61-.96,2.3-1.59l6.18-5.77c8.68-7.88,17.9-15.46,25.83-24.08,4.32-4.73,8.16-9.82,11.96-14.97l4.73,6.76c3.09,4.05,6.6,7.88,10.18,11.49,7.31,7.36,15.43,14.07,23.15,20.99l5.47,4.93c.52.47,1.7,1.67,2.33,1.89.38.11.82.11,1.23.16,1.15-.44,1.26-.52,1.97-1.53-.27-4.38-3.2-9.88-4.6-14.09-1.72-5.2-3.17-10.62-4.32-16.01-5.45-25.5-6.49-54.35,1.34-79.44,1.92-6.16,4.24-12.18,7.8-17.57,9.39-14.28,26.41-22.63,42.74-25.94-.27.49-1.5.99-2.05,1.26-2.35,1.31-4.68,2.49-6.92,4.02-8.81,5.99-16.97,14.5-21.37,24.27-4.65,10.26-4.87,22.91-5.69,33.99-1.07,14.39-2.27,28.62-.25,43.02,1.15,8.02,3.67,15.71,6.51,23.26l23.94,51.2c2.03,5.45,3.86,11.03,5.09,16.72.63,2.87,1.23,6.08.98,9.06-.25,3.06-1.29,5.99-2.54,8.78-2.11-2.05-4.62-3.72-7.28-4.98ZM953.63,803.43c2.33-2.76,4.6-5.56,7.28-7.99,6.49-5.8,14.26-9.58,22.52-12.1.77,1.34.08,6.81.03,8.62l-.82,29.66c-11.19,4.43-20.39,9.3-29.14,17.65-2.19-2.9-5.28-5.31-8.26-7.36-3.5-2.44-7.09-4.68-10.89-6.51l-9.33-4.02-.11-1.48-.88-36.51c11.71,3.8,22.44,9.74,29.61,20.03ZM923.75,778.22l-1.89-42.55c12.67,3.94,24.44,10.81,31.85,22.03l4.3-5.86c6.92-7.85,17.71-13.79,28.24-14.48l-2,35.27c-.03.6,0,5.09-.19,5.34-.25.33-6.46,1.97-7.33,2.27-8.54,3.12-16.75,8.32-22.69,15.22-5.97-5.12-11.85-9.8-18.99-13.19-3.64-1.72-7.44-2.9-11.3-4.05ZM986.55,732.66c-.08.05-1.7.08-1.83.11-1.59.08-3.12.36-4.65.68-10.73,2.24-18.96,8.13-26.46,15.93-9.44-9.61-19.62-15.08-32.35-19.18l-4.73-50.33,7.14.99c12.23,2.63,23.43,11.3,30.16,21.65l4.54-5.91c8.76-9.85,18.88-15.84,32.15-16.56l-3.26,44.52c-.08.99-.6,8.02-.71,8.1ZM989.81,674.83c-1.83.05-3.69.08-5.5.3-11.44,1.4-20.88,8.81-28.62,16.78l-1.78,2.11c-8.05-7.91-16.42-15.35-27.72-18.01-3.48-.82-6.73-.96-10.26-.96l-2.14-16.88c-.22-1.53-.47-3.12-.33-4.65.22-2.24,1.12-4.49,1.94-6.54,1.81-4.68,3.86-8.98,6.92-12.97,6.92-9.06,16.5-13.76,27.64-15.22l.11-.03c9.93-.63,20.17,2.11,27.89,8.54,6.81,5.66,11.17,12.75,14.04,21.04.57,1.61,1.53,3.67,1.61,5.36.19,4.68-1.12,10.21-1.78,14.89-.19,1.34-.66,6.13-.79,6.21-.03.03-1.07.03-1.23.03ZM991.12,634.42c-1.23-1.92-2.6-3.8-4.1-5.5-7.8-8.89-19.59-14.53-31.36-15.22-5.01-.19-9.82.3-14.64,1.7-9.58,2.76-18.42,9.61-24.16,17.68-2.11,2.98-3.78,6.4-5.56,9.63-2.05-6.1-2.79-12.78-3.2-19.18-.88-14.83,2.87-28.98,12.89-40.23,8.15-9.17,18.85-14.23,31.06-14.94,4.52-.25,9.19.38,13.52,1.64,12.04,3.5,21.95,11.66,27.91,22.69,6.21,11.49,6.7,23.56,4.98,36.26-.6,4.41-1.31,8.95-2.6,13.22-.55-.3-.99-1.45-1.31-2l-3.42-5.75ZM873.07,733.01c.27,12.1,1.48,24.57,4.05,36.4,3.07,14.12,7.91,27.91,13.44,41.21l-3.23-3.28c-7.77-8.4-15.43-16.99-21.76-26.57-10.02-15.27-16.5-33.28-19.73-51.23-4.1-23.04-1.81-45.32,5.77-67.37l12.7-35.52c.85-2.71,1.64-5.45,2.22-8.24.74-3.61.52-8.89,2.71-11.82,2.33-3.12,5.8-4.35,9.5-4.84,2.46-.05,4.73.22,7.03,1.15,5.75,2.3,9.55,8.13,11.82,13.63,1.53,3.69,2.52,7.61,3.59,11.44.49,1.7,1.37,4,1.42,5.75.03.52-.52,1.67-.71,2.16-1.01,2.49-2.44,4.87-3.72,7.25l-9.8,18.61c-2.22,4.32-4.38,8.65-6.21,13.16-7.5,18.31-9.55,38.48-9.09,58.12ZM852.08,567.56c.71,2.41,2.19,5.23,2.46,7.69l-7.74,3.56-16.09,4.57-.16-13.3c-.52-8.48-1.45-17.1-.27-25.59.55-3.89,1.72-7.64,2.9-11.38l16.67,13.98c-.33,7.14.14,13.63,2.24,20.47ZM838.45,529.74c-16.47-16.31-24.46-39.27-26.02-62.01-.55-8.16-.22-16.47-.19-24.63l-.08-34.26c5.17-6.9,12.01-12.78,19.76-16.58,4.1-2.03,8.48-3.34,12.86-4.65,10.4,2.11,21.56,7.69,29.44,14.78,7.09,6.35,12.59,14.26,15.38,23.4,1.34,4.38,1.86,9,2.35,13.52l1.48,19.32c-3.31-6.16-7.91-12.15-13.82-16.01-9-5.91-18.83-6.7-28.82-2.9-3.97,1.51-7.74,3.42-11.93,4.24-2.68.55-5.25.85-7.99.66-1.94-.11-4.93-1.23-6.73-.79-.55.16-.63.55-.9.99.16,1.29,1.09,2.16,1.92,3.09,2.74,3.01,6.16,5.8,9.58,7.99,1.72,1.07,4.76,2,5.64,3.89l.25.55c4.38,8.98,10.04,19.35,20.14,22.63,4.9,1.61,9.14.79,13.57-1.51,4.68,3.01,8.78,7.09,12.92,10.81l4.73,3.72c-3.56,19.16-12.67,36.1-21.37,53.31-3.07-1.07-6.24-1.97-9.2-3.31-8.81-4.02-16.15-9.44-22.96-16.23ZM825.78,583.82c-8.84,1.48-17.98,1.04-26.82-.08l-19.16-4.24c2.41-10.23,5.06-20.36,8.59-30.24,5.97-16.58,14.42-32.92,24.68-47.26,3.23,5.88,5.77,11.93,9.44,17.6l4.73,6.9c.3.38,1.75,2,1.81,2.38.16,1.07-1.42,4.73-1.78,5.99-1.31,4.32-2.03,8.67-2.38,13.16-.9,11.88,1.04,23.86.88,35.79ZM953.77,331.12l36.37,60.4-36.2,90.66-36.64-90.25,36.48-60.81ZM914.2,387.36l-22.33-19.46-20.61-18.34c1.72-1.23,4.79-1.78,6.87-2.44l18.47-5.56,53.53-15.9.66.14c-.79,3.64-4.35,8.05-6.27,11.33l-30.32,50.22ZM956.26,325.37l80.48,23.92-20.22,17.54-23.12,20.33-37.14-61.79ZM953.47,320.23l-62.39-19.92,62.61-81.69,61.38,81.47-48.14,16.09c-4.08,1.31-9.25,3.94-13.46,4.05ZM882.67,302.8l61.11,19.35c-.19.33-.77.38-1.1.49l-14.09,4.19-39,11.82-28.73,8.54,36.2,32.05,10.04,8.7c1.64,1.45,3.61,2.98,4.93,4.73.96,1.29,1.61,3.5,2.24,5.04l5.5,13.55,17.38,41.35,14.31,37.44c-6.65,11.63-15.6,20.58-25.56,29.34l-12.56,10.86c5.12-15.63,8.7-31.58,9.22-48.11.38-12.04-.11-23.48-1.89-35.41-2.44-16.64-7.28-32.62-19.07-45.13-10.59-11.25-26.93-19.87-42.58-20.28-11.41-.3-22.39,1.51-32.4,7.28-5.25,3.04-9.85,6.95-14.23,11.08l.11-25.42c.93-20.06,6.95-39.27,17.13-56.54,19.05-32.32,52.38-53.45,88.25-62.67.63-.14.3-.16.99.11l-36.2,47.64ZM876.02,460.78l-3.2-3.26c-9.28-7.85-17.9-3.48-28.46-2.85-3.69.22-8.7-2.96-11.38-5.34,9.82-.63,18.06-6.02,27.72-7.36l.47-.03c7.14-.63,14.37,2.87,19.48,7.66,3.67,3.45,6.29,8.05,8.46,12.56.6,1.29,1.59,3.06,1.64,4.49-3.31,3.69-6.1,6.16-10.59,8.37.05-5.86-.68-9.44-4.13-14.26ZM875.69,474.44c-.6,1.89-2.19,3.28-3.91,4.16-3.12,1.56-7.33,1.12-10.54.11-8.4-3.67-12.18-10.95-15.95-18.88l15.98-2.49,2.9.41c4.3.99,7.99,3.64,10.26,7.47,1.56,2.6,2.19,6.27,1.26,9.22ZM892.44,471.62c.77,6.27.57,12.51.14,18.8l-7.03-5.64-5.97-5.23c5.17-1.81,8.7-4.46,12.86-7.94ZM867.35,554.48l-4.76,12.42-2.24,5.77c-3.89-7.72-5.2-14.34-5.36-22.91l12.37,4.71ZM1045.01,452.27c-5.47.66-9.22,3.53-12.53,7.72-3.28,4.87-4.38,9.09-4.82,14.97-4.6-1.92-8.13-4.21-10.78-8.51,1.2-4.9,4.57-10.56,7.8-14.42,5.86-6.92,13.03-9.88,21.89-10.7,7.22.3,12.75,3.2,19.38,5.75,2.98,1.15,6.02,1.92,9.14,2.68-3.45,2.68-7.91,4.82-12.37,4.62-6.13-.25-11.3-2.9-17.71-2.11ZM1059.4,465.98c-2.98,6.4-7.47,10.48-14.09,12.92-1.75.38-3.5.6-5.31.63-2.52.03-4.46-.27-6.29-2.16-.98-1.04-2.13-2.52-2.05-4.05l.03-.44c.16-3.34,1.04-6.08,2.9-8.87,2.85-4.32,7.01-6.46,11.96-7.44l1.04-.03c4.05-.08,10.02,1.29,13,4.13.55,1.7-.47,3.78-1.18,5.31ZM1027.22,479.44l-5.2,4.9-6.76,5.77c-.96-6.24-.85-12.4-.74-18.69,4.05,3.67,7.64,5.91,12.7,8.02ZM1019.99,491.73l11.63-10.07c1.42.74,2.82,1.45,4.41,1.83,5.47,1.34,11.25.16,16.01-2.82,7.72-4.79,11.6-12.86,13.52-21.45,1.59-.36,3.12-1.04,4.57-1.7,4.38-2,8.15-4.54,11.77-7.72,1.53-1.34,3.23-2.85,3.97-4.79-.19-1.15-.36-1.09-1.29-1.83-1.48-.11-2.65.55-4.05.9-2.13.57-4.62.74-6.79.33-4.76-.9-9.28-3.15-13.71-5.01-7.22-3.04-15.13-3.39-22.66-1.29-10.04,2.79-17.19,9.82-22.22,18.69-.05-3.48.49-7.03.79-10.51.9-10.59,1.48-22.52,6.95-31.88,8.54-14.61,23.92-22.58,39.71-26.79.85-.08,1.61-.05,2.46.08,6.62.99,12.92,6.16,17.84,10.4,4.32,3.75,8.59,7.69,11.93,12.34l.03,34.7c0,8.65.47,17.57-.16,26.19-.85,11.44-3.89,23.01-8.92,33.33-9.69,19.98-27.39,36.48-48.41,43.81-9.39-16.99-17.51-34.4-21.59-53.45,1.07-1.29,2.85-2.3,4.21-3.31ZM1045.58,567.42l-5.17-13.16,10.21-4.9.44.38c.66,7.66-.85,14.39-4.05,21.35-.52-.3-1.18-2.96-1.42-3.67ZM1055.95,561.16c.9-4.93.63-9.96.19-14.91,5.86-3.61,10.59-7.88,15.57-12.56,4.71,11.36,7.22,24.49,5.94,36.78-.47,4.57-1.64,9-2.87,13.38l-13.96-3.64-10.26-3.97c2.22-4.9,4.43-9.74,5.39-15.08ZM1094.87,401.64c-.49.11-.71-.44-1.04-.77-5.53-5.5-11.6-10.89-18.47-14.7-13.05-7.22-27.26-5.45-41.08-1.37-16.2,4.76-30.68,15-38.75,30.05-4.95,9.28-7.53,19.13-9.19,29.45-4.71,28.79-.85,58.15,7.58,85.87-1.26-.63-2.41-1.94-3.48-2.87l-6.08-5.47c-10.84-9.61-21.18-19.1-28.54-31.83l38.8-95.97c.85-2.19,3.07-3.94,4.79-5.53l10.86-9.58,26.6-23.32,6.68-5.72c1.01-.9,2.35-1.78,3.09-2.93l-82.43-24.41,59.16-19.65-34.92-48.16c27.61,6.49,52.24,20.31,72.05,40.56,6.95,7.06,12.62,15.13,17.68,23.62,7.66,12.78,13.46,27.04,15.52,41.87,1.83,13.46,1.29,27.28,1.15,40.86ZM645.47,365.93c-5.12-4.21-10.56-8.21-16.23-11.69l-14.09-8.05,85.3-51.75,31.39-19.32c6.32-3.8,12.59-7.8,19.27-10.92,1.15-.55,2.33-1.04,3.5-1.53,4.82-1.94,9.69-3.5,14.61-4.71,8.87-2.19,17.95-3.31,27.17-3.89,4.32-.38,8.92-.03,13.25.22,19.92,1.26,39.35,7.14,57.36,15.68-6.27,3.69-12.1,8.7-17.49,13.57-16.23,14.67-28.21,32.13-35.93,52.6-1.86,4.95-3.17,9.99-4.57,15.08l-16.06-8.4c-19.59-8.51-40.58-12.31-61.6-11.08-3.89.22-7.8.63-11.69,1.2-3.04.44-6.1,1.01-9.14,1.67-9.2,2.03-18.01,5.14-26.76,8.59-13.66,5.69-26.9,13.24-38.28,22.71ZM649.08,369.62c20.72-15.82,43.79-26.46,69.15-30.98,3.83-.68,7.74-1.23,11.69-1.64.08,0,.16-.03.25-.03,7.28-.85,15.3-.41,22.58.44,20.09,2.41,37.9,8.95,55.09,19.48-1.83,7.94-1.83,16.31-1.97,24.41-27.42-2.24-56.21,1.15-82.73,9.33-3.69,1.12-7.36,2.35-10.95,3.67-.36.14-.68.25-1.04.38l-35.41,16.58c-7.25-15.27-14.5-29.61-26.65-41.65ZM712.18,527.96l-2.52-3.67c-12.23-21.07-15.74-44.72-21.02-68.11-3.04-13.44-6.57-26.44-11.19-39.46,4.95-3.42,10.51-6.24,15.9-8.92,6.1-3.06,12.4-5.77,18.83-8.13,3.61-1.4,7.25-2.63,10.95-3.75,19.18-5.97,39.24-9.19,59.22-9.88l23.64.52c.05,3.17.22,50.95,0,51.42-.38.77-7.58,5.58-8.67,6.46-7.61,5.91-14.78,12.34-21.73,18.99-15.24,14.61-29.09,30.13-42.36,46.58l-10.1,12.97-7.64,9.8-3.31-4.82ZM723.13,530.84c5.28-7.22,11.03-14.23,16.64-21.07,14.7-17.92,30.02-34.89,47.34-50.38l18.85-15.35c.77,1.48.16,5.61.11,7.36l-.05,14.39c.19,5.36.77,10.67,1.72,15.93l2.41,10.97c.11.49.99,2.96.9,3.34-.14.55-1.51,2.05-1.89,2.57l-4.68,7.03c-4.98,7.8-9.25,15.84-13.24,24.19-7.36,15.46-11.74,31.61-16.47,47.97-7.2-3.39-14.42-6.27-21.32-10.26-4.08-2.35-7.85-5.23-11.66-7.96-6.65-5.04-13.03-10.75-18.66-17.02-1.56-1.72-3.06-3.5-4.52-5.31,1.45-2.16,2.98-4.3,4.52-6.4ZM918.49,883.11c-109.33-9.52-195.36-101.55-195.36-213.32v-116.8c.77.77,1.56,1.53,2.35,2.3,4.3,4.05,8.78,7.8,13.49,11.27,5.64,4.13,11.58,7.85,17.79,11.17,1.04.55,2.08,1.09,3.12,1.61,1.56.79,3.15,1.56,4.76,2.3,1.61.74,3.23,1.45,4.87,2.13v.03s.03,0,.08.03c.11.03.33.08.6.19.16.03.33.08.49.14.25.08.49.16.77.25.22.05.47.14.71.22.47.14.96.3,1.45.47.41.11.82.25,1.2.38.38.11.71.22.98.33.41.11.68.22.71.22,3.59,1.18,7.25,2.19,10.95,3.04,1.4.3,2.82.6,4.21.88,4.24.79,8.54,1.37,12.83,1.7,1.34.11,2.68.19,4.05.25,10.84.41,21.89-.79,32.48-3.61,1.56-.41,3.09-.85,4.62-1.34.9-.27,1.78-.57,2.65-.88,2.6-.9,5.2-1.89,7.72-3.01l.47-.19h.03c.08.11.11.25.14.38.16.79-.16,2.05-.38,3.01-.05.25-.11.49-.14.68-.11.6-.22,1.23-.33,1.83v.05c-.19,1.29-.36,2.57-.44,3.86-.05.63-.08,1.26-.08,1.89.03,3.2.77,6.62,2.03,9.55.96,2.22,2.3,4.08,2.93,6.27.11.44.22.88.27,1.31.08.52.11,1.07.05,1.64-.08,1.01-.22,2.03-.41,3.04v.03c-.19,1.01-.41,2.03-.68,3.04-.25,1.01-.55,2.03-.85,3.01-.27,1.01-.6,2-.9,2.96l-5.99,16.5c-1.7,4.49-3.37,9-4.98,13.55-.52,1.53-1.04,3.04-1.56,4.57-.68,2.03-1.34,4.05-1.94,6.1-3.2,10.51-5.58,21.24-6.21,32.29-.74,12.78.68,25.23,2.82,37.82,0,0,6.21,30.76,25.09,55.69,1.59,2.08,3.23,4.16,4.93,6.21,1.67,2.05,3.42,4.08,5.2,6.08,1.78,2,3.61,3.97,5.47,5.88.93.99,1.89,1.94,2.85,2.87,8.57,8.51,17.95,16.26,27.8,22.77-1.56-2.93-3.12-5.83-4.65-8.7-4.65-8.73-9.06-17.43-12.78-26.74-5.17-12.97-9.06-26.52-11.38-40.34-.41-2.3-.74-4.62-1.04-6.95-1.53-11.36-2-22.82-1.31-34.23.25-3.97.57-7.94,1.09-11.88.33-2.63.74-5.23,1.23-7.83.74-3.91,1.67-7.77,2.82-11.6,4.62-15.32,12.94-29.04,20.09-43.24,1.67,9.66,3.12,19.37,4.38,29.12,1.29,9.77,2.35,19.57,3.31,29.36.55,5.69,1.04,11.38,1.48,17.08.68,8.57,1.26,17.13,1.72,25.67.49,8.57.9,17.13,1.23,25.67.14,3.53.27,7.06.38,10.59.25,6.46.44,12.89.6,19.32,0,0,.03,1.48.03,3.89.03.36.03.71.03,1.09.03,1.04.03,2.19.05,3.45.03.77.03,1.59.03,2.44,0,.41.03.85.03,1.29,0,1.01.03,2.05.05,3.12.03.71.03,1.42.03,2.13.05,4.02.11,8.29.19,12.34.03.74.03,1.48.03,2.19,0,1.07.03,2.11.05,3.15.05,3.28.08,6.21.14,8.48.03.74.03,1.4.03,1.97,0,.88.03,1.56.03,2.05.03.47.03.71.03.74.05,2.44.08,4.9.11,7.33.11,8.89.11,17.68-.74,26.41ZM989.07,898.55c2.13,3.91,3.42,6.57,2.93,11.08-.44,4-2.49,7.66-5.17,10.65-2.13,2.35-4.63,4.27-7.17,6.13-2.24,1.67-3.89,4.05-5.83,6.1-4.57,4.84-9.3,9.52-14.2,14.07-.41.41-.85.79-1.42.93-.52.14-1.1,0-1.61-.16-3.64-1.2-6.43-4.05-9.03-6.84-7.88-8.37-15.57-16.94-23.04-25.7-1.4-1.64-2.85-3.39-3.34-5.5-.57-2.57.36-5.2,1.12-7.72.74-2.35,1.34-4.73,1.81-7.12.74-3.58,1.2-7.2,1.48-10.86.82-9.58.38-19.35.11-28.84l-.79-28.08c11.9,3.75,20.8,11.17,28.82,20.44,7.94-10.13,17.21-15.38,28.82-20.39l-.63,29.31c-.22,8.95-.11,18.42,1.78,27.39.77,3.69,1.83,7.28,3.28,10.75.63,1.48,1.34,2.93,2.11,4.35ZM991.83,888.37c.3,1.07.66,2.05,1.01,2.98-.38-.9-.71-1.92-1.01-2.98ZM1183.37,553.22v116.58c0,110.89-84.7,202.34-192.79,213.1-.05-.27-.08-.55-.14-.82-.08-.44-.16-.88-.22-1.34-.14-.9-.27-1.83-.38-2.76-.25-1.83-.44-3.69-.6-5.56-.05-.66-.11-1.31-.14-1.92-.14-1.75-.22-3.48-.3-5.12-.03-.47-.05-.9-.05-1.31-.03-.49-.03-.96-.05-1.45-.03-1.12-.08-2.19-.08-3.2-.08-3.75-.05-6.68-.03-8.02l.96-45.29,4.71-89.81c.33-4.6.68-9.19,1.04-13.76.36-4.57.74-9.17,1.15-13.74,1.37-15.22,3.09-30.35,5.75-45.54l.11.38c1.53,4.71,4.27,9.36,6.68,13.85.36.66.68,1.29,1.01,1.92,1.34,2.65,2.65,5.28,3.94,7.94,1.29,2.65,2.52,5.34,3.72,8.02.79,1.81,1.56,3.61,2.3,5.42.96,2.44,1.86,4.9,2.71,7.39,6.98,20.77,5.86,42.12,2.54,63.43-.68,4.43-1.48,8.87-2.38,13.24-2.71,13.14-6.43,26.02-11.36,38.48v.03c-1.07,2.76-2.22,5.53-3.45,8.24v.03c-.6,1.37-1.2,2.74-1.86,4.08-.63,1.37-1.26,2.68-1.94,4.02l-8.21,16.28c5.25-3.45,10.15-7.42,14.89-11.58,1.56-1.4,3.15-2.79,4.68-4.21,2.19-2,4.32-4.02,6.46-6.08,1.04-1.01,2.11-2.05,3.15-3.12,1.01-1.04,2.05-2.08,3.06-3.15,2.03-2.13,4-4.32,5.91-6.57,1.64-1.94,3.26-3.94,4.82-6.02.11-.14.22-.3.36-.44.05-.08.11-.16.16-.22.05-.08.11-.16.16-.25,1.18-1.56,2.3-3.15,3.39-4.68,1.07-1.56,2.11-3.09,3.12-4.62.6-.9,1.18-1.83,1.75-2.74,1.7-2.71,3.28-5.39,4.73-7.99.14-.27.27-.52.44-.77.63-1.18,1.23-2.33,1.83-3.45.14-.27.27-.55.41-.82.66-1.26,1.26-2.49,1.83-3.69.98-2.03,1.89-4,2.74-5.91,2.65-6.08,4.57-11.55,5.94-16.09.38-1.29.71-2.49,1.04-3.61.77-2.85,1.29-5.23,1.64-7.03.44-2.16.63-3.53.68-3.97.74-5.28,1.29-10.65,1.51-15.95.16-3.67-.14-7.42-.36-11.08-.36-6.13-1.15-12.15-2.24-18.09-.33-1.83-.71-3.64-1.09-5.45-.14-.52-.25-1.01-.36-1.53-.74-3.26-1.61-6.49-2.52-9.71-.93-3.23-1.94-6.43-3.01-9.63-.77-2.19-1.53-4.41-2.3-6.6-.44-1.12-.85-2.22-1.26-3.34-.57-1.53-1.15-3.04-1.75-4.57-1.34-3.42-2.65-6.87-3.94-10.32-1.29-3.48-2.52-6.95-3.61-10.48-.25-.77-.49-1.56-.71-2.33-.93-3.15-1.72-6.32-2.35-9.52l.58-.68c1.4-1.75,2.49-3.53,3.34-5.31.33-.71.6-1.42.88-2.13.63-1.83,1.07-3.72,1.29-5.64.11-.71.16-1.42.22-2.16.14-2.6,0-5.34-.25-8.18-.08-.68-.14-1.37-.22-2.05l.03.03c2.68,1.18,5.39,2.22,8.13,3.09,2.24.71,4.46,1.34,6.73,1.89,12.1,2.85,24.63,3.23,37.16,2.35,9.5-.66,19.13-2.08,28.19-5.09l7.33-2.35c.85-.41,1.72-.82,2.57-1.26,1.29-.63,2.57-1.26,3.86-1.89,1.42-.71,2.82-1.45,4.21-2.19,2.11-1.12,4.16-2.27,6.21-3.53,2.79-1.7,5.53-3.5,8.18-5.39,2.65-1.89,5.23-3.86,7.74-5.91h.03c2.52-2.08,4.98-4.19,7.36-6.38,1.56-1.45,3.09-2.9,4.6-4.38v-.03c.82-.79,1.64-1.59,2.44-2.41-.79.82-1.61,1.64-2.44,2.44ZM1183.37,542.74c-5.58,6.1-11.6,11.71-18.03,17.02-9.39,7.58-19.76,13.66-30.9,18.23-7.28-18.94-14.75-37.93-23.89-56.04l-10.73-20.36-2.46-4.38c-.25-.44-.96-1.4-1.04-1.81-.25-1.31,1.34-5.36,1.72-6.73.82-3.06,1.56-6.24,2.03-9.39,1.81-12.48,1.45-25.18,1.48-37.76,11.79,9.66,22.74,20.36,33.41,31.2,17.16,17.51,33.8,36.29,48.41,56.1,1.86,2.52,3.69,5.06,5.47,7.61-1.78,2.16-3.59,4.27-5.47,6.32ZM1205.31,507.74c-2.98,7.42-6.71,14.31-11,20.99-.79,1.23-1.61,2.46-2.44,3.67-2.71-4.02-5.56-7.96-8.51-11.82-4.32-5.69-8.87-11.22-13.44-16.69-13.68-16.45-28.38-32.13-43.76-46.99l-23.73-21.84c-.14-.16-.88-.79-.96-1.01-.14-.38.03-1.7.03-2.13v-6.43l.03-39.3.66-.52c27.42-.25,54.87,2.05,81.17,10.04,1.59.49,3.15.99,4.71,1.51,2.11.71,4.19,1.42,6.24,2.19,12.45,4.62,24.22,10.43,35.93,16.8l-24.93,91.54ZM1231.89,411.44l-24.9-12.53c-4.19-1.7-8.4-3.39-12.67-4.93-3.61-1.34-7.25-2.57-10.95-3.67-1.01-.3-2.03-.6-3.04-.88-25.94-7.17-52.08-8.73-78.87-9.06l-1.67-23.75c2.71-2.05,5.94-3.58,8.95-5.14,16.86-8.78,35.9-13.46,54.87-14.2,4.38-.16,8.76-.08,13.11.25,3.89.3,7.74.77,11.6,1.42,25.23,4.21,49.59,15.71,70.33,29.88-11.88,12.45-19.87,26.98-26.76,42.61ZM1278.43,353.78c-5.66,3.5-10.81,7.42-15.9,11.66-9.11-6.87-19.38-12.64-29.66-17.49l-23.4-9.19c-7.47-2.3-14.94-4-22.44-5.06-3.89-.57-7.77-.99-11.66-1.18-19.95-1.23-39.82,1.97-59.14,9.85-6.1,2.49-11.9,5.58-17.73,8.68-5.2-21.24-15.95-41.16-30.65-57.36-8.29-9.11-17.65-16.88-27.64-24.08,3.83-2.08,8.21-3.67,12.29-5.2,14.67-5.53,30.16-8.89,45.81-9.91,12.64-.93,26.44.14,38.94,3.45,2.05.52,4.08,1.12,6.05,1.78,4.3,1.42,8.46,3.15,12.51,5.04,11.74,5.5,22.63,12.62,33.77,19.43l60.72,36.7,27.72,16.78c4.54,2.68,9.03,5.83,13.82,8.02l.55.27-13.96,7.83Z"/>
</svg>