<svg width="148" height="147" viewBox="0 0 148 147" fill="none" xmlns="http://www.w3.org/2000/svg">
<path d="M112.404 36.75C118.59 50.0413 117.182 65.7213 110.383 78.4613C104.625 88.8125 96.3567 97.5713 89.3129 107.188C86.2504 111.475 83.1879 116.069 80.9217 121.03C80.1254 122.684 79.5742 124.399 78.9617 126.114C78.3492 127.829 77.7979 129.544 77.2467 131.259C76.6954 132.851 76.0217 134.75 74.0004 134.75C71.6117 134.75 70.9379 132.055 70.4479 130.217C68.9779 125.746 67.5079 121.459 65.2416 117.355C62.6692 112.516 59.4229 108.045 56.1154 103.696L112.404 36.75ZM56.3604 51.5725L36.1479 75.5825C39.8842 83.4837 45.4579 90.2213 50.7867 96.9587C52.0729 98.49 53.3592 100.083 54.5842 101.736L80.1254 71.4788L79.8804 71.54C70.9379 74.6025 61.0154 70.07 57.4629 61.25C56.9729 60.2088 56.6054 58.9838 56.3604 57.7588C56.0177 55.7315 56.0177 53.661 56.3604 51.6338V51.5725ZM40.8029 28.2975L40.7417 28.3588C30.8192 40.915 29.1042 58.3712 35.0454 73.1325L59.4842 44.1L59.1779 43.7938L40.8029 28.2975ZM87.5979 14.455L67.8754 37.7913L68.1204 37.73C76.3279 34.9125 85.5154 38.465 89.6804 45.9375C90.5992 47.6525 91.3342 49.49 91.5792 51.3275C91.9467 53.655 92.0692 55.3087 91.6404 57.575V57.6362L111.24 34.3612C106.111 25.052 97.7076 17.9797 87.6592 14.5162L87.5979 14.455ZM61.0767 42.2013L85.0254 13.72L84.7804 13.6588C81.2279 12.74 77.6142 12.25 74.0004 12.25C61.9342 12.25 50.5417 17.4562 42.4567 26.3987L42.3342 26.46L61.0767 42.2013Z" fill="#CBCBCB"/>
</svg>
